<?xml version="1.0" encoding="UTF-8" standalone="no"?>
<!-- Created with Inkscape (http://www.inkscape.org/) -->

<svg
   version="1.1"
   id="svg2"
   xml:space="preserve"
   width="4000"
   height="933.33331"
   viewBox="0 0 4000 933.33331"
   sodipodi:docname="localiquiz grisbleu.ai"
   xmlns:inkscape="http://www.inkscape.org/namespaces/inkscape"
   xmlns:sodipodi="http://sodipodi.sourceforge.net/DTD/sodipodi-0.dtd"
   xmlns="http://www.w3.org/2000/svg"
   xmlns:svg="http://www.w3.org/2000/svg"><defs
     id="defs6"><clipPath
       clipPathUnits="userSpaceOnUse"
       id="clipPath16"><path
         d="M 0,700 H 3000 V 0 H 0 Z"
         id="path14" /></clipPath></defs><sodipodi:namedview
     id="namedview4"
     pagecolor="#ffffff"
     bordercolor="#666666"
     borderopacity="1.0"
     inkscape:pageshadow="2"
     inkscape:pageopacity="0.0"
     inkscape:pagecheckerboard="0" /><g
     id="g8"
     inkscape:groupmode="layer"
     inkscape:label="localiquiz grisbleu"
     transform="matrix(1.3333333,0,0,-1.3333333,0,933.33333)"><g
       id="g10"><g
         id="g12"
         clip-path="url(#clipPath16)"><g
           id="g18"
           transform="translate(717.7842,397.2632)"><path
             d="m 0,0 c 60.251,-60.251 60.251,-157.939 0,-218.19 -60.251,-60.251 -157.938,-60.251 -218.189,0 -33.467,33.467 -133.384,133.385 -166.851,166.851 -60.251,60.251 -60.251,157.938 0,218.19 60.251,60.251 157.938,60.251 218.189,0 z m -410.709,192.52 c -74.428,-74.429 -74.428,-195.101 0,-269.528 l 166.851,-166.851 c 74.427,-74.428 195.099,-74.429 269.527,0 74.428,74.428 74.428,195.101 0,269.528 l -166.85,166.851 c -74.428,74.428 -195.1,74.427 -269.528,0"
             style="fill:#fad4cd;fill-opacity:1;fill-rule:nonzero;stroke:none"
             id="path20" /></g><g
           id="g22"
           transform="translate(596.1221,219.0566)"><path
             d="m 0,0 c 0,-85.208 -69.075,-154.283 -154.283,-154.283 -85.208,0 -154.283,69.075 -154.283,154.283 v 235.962 c 0,85.208 69.075,154.283 154.283,154.283 C -69.075,390.245 0,321.17 0,235.962 Z m -154.283,426.547 c -105.258,0 -190.585,-85.328 -190.585,-190.585 V 0 c 0,-105.257 85.327,-190.586 190.585,-190.586 105.257,0 190.585,85.329 190.585,190.586 v 235.962 c 0,105.257 -85.328,190.585 -190.585,190.585"
             style="fill:#b5e1f8;fill-opacity:1;fill-rule:nonzero;stroke:none"
             id="path24" /></g><g
           id="g26"
           transform="translate(384.0835,179.0732)"><path
             d="m 0,0 c -60.251,-60.251 -157.938,-60.251 -218.189,0 -60.252,60.252 -60.251,157.938 0,218.189 l 166.85,166.851 c 60.251,60.252 157.938,60.252 218.19,0 60.251,-60.251 60.251,-157.938 0,-218.189 C 133.384,133.384 33.466,33.467 0,0 m 192.52,410.709 c -74.428,74.429 -195.101,74.428 -269.528,0 l -166.851,-166.85 c -74.428,-74.428 -74.428,-195.1 0,-269.528 74.428,-74.428 195.1,-74.428 269.528,0 L 192.52,141.182 c 74.428,74.427 74.428,195.1 0,269.527"
             style="fill:#d3eae4;fill-opacity:1;fill-rule:nonzero;stroke:none"
             id="path28" /></g><g
           id="g30"
           transform="translate(332.7441,345.9238)"><path
             d="M 0,0 C -30.124,30.125 -45.187,69.607 -45.188,109.09 V -2.837 c 5.81,-7.987 12.314,-15.627 19.519,-22.832 19.781,-19.781 68.087,-68.087 109.095,-109.095 7.977,7.977 16.654,16.655 25.669,25.669 C 68.505,-68.504 21.076,-21.075 0,0"
             style="fill:#f18881;fill-opacity:1;fill-rule:nonzero;stroke:none"
             id="path32" /></g><g
           id="g34"
           transform="translate(552.2563,562.7739)"><path
             d="m 0,0 c 0.298,-0.305 0.593,-0.613 0.888,-0.92 0.137,-0.143 0.276,-0.286 0.413,-0.43 0.356,-0.372 0.707,-0.747 1.058,-1.122 0.068,-0.073 0.137,-0.146 0.205,-0.218 0.408,-0.438 0.811,-0.878 1.213,-1.319 0.004,-0.005 0.008,-0.009 0.011,-0.012 11.983,-13.172 21.278,-27.915 27.887,-43.525 0.028,-0.066 0.056,-0.132 0.084,-0.198 0.143,-0.338 0.283,-0.677 0.423,-1.017 0.119,-0.287 0.238,-0.573 0.356,-0.862 0.047,-0.118 0.094,-0.237 0.142,-0.355 6.332,-15.666 10.165,-32.608 11.007,-50.335 0.003,-0.063 0.006,-0.128 0.009,-0.192 0.025,-0.538 0.048,-1.077 0.067,-1.617 0.007,-0.175 0.011,-0.35 0.017,-0.525 0.014,-0.44 0.029,-0.879 0.039,-1.319 0.008,-0.314 0.012,-0.628 0.018,-0.942 0.006,-0.312 0.013,-0.623 0.017,-0.935 0.008,-0.639 0.012,-1.279 0.012,-1.917 v -111.927 c 24.199,33.27 36.302,72.6 36.302,111.932 0,0.787 -0.006,1.573 -0.015,2.359 -0.005,0.395 -0.014,0.791 -0.021,1.186 -0.007,0.378 -0.013,0.756 -0.022,1.133 -0.013,0.549 -0.031,1.098 -0.049,1.646 -0.007,0.21 -0.013,0.421 -0.02,0.632 -0.024,0.671 -0.053,1.341 -0.084,2.012 -0.003,0.074 -0.006,0.148 -0.01,0.223 -0.333,6.949 -1.047,13.884 -2.137,20.771 L -1.314,1.331 C -1.112,1.129 -0.913,0.924 -0.712,0.722 -0.475,0.481 -0.236,0.242 0,0"
             style="fill:#028390;fill-opacity:1;fill-rule:nonzero;stroke:none"
             id="path36" /></g><g
           id="g38"
           transform="translate(251.4648,463.9873)"><path
             d="M 0,0 C -0.031,-0.671 -0.06,-1.342 -0.084,-2.013 -0.092,-2.223 -0.097,-2.434 -0.104,-2.645 -0.122,-3.193 -0.14,-3.741 -0.153,-4.29 -0.162,-4.667 -0.168,-5.045 -0.175,-5.423 -0.182,-5.819 -0.191,-6.214 -0.196,-6.61 -0.206,-7.395 -0.211,-8.181 -0.211,-8.969 -0.211,-48.3 11.892,-87.63 36.091,-120.9 V -8.974 c 0,0.639 0.004,1.278 0.012,1.917 0.004,0.312 0.011,0.623 0.017,0.935 0.005,0.314 0.01,0.629 0.018,0.943 0.01,0.438 0.025,0.874 0.039,1.311 0.006,0.178 0.011,0.356 0.017,0.535 0.019,0.536 0.042,1.072 0.067,1.608 0.003,0.067 0.006,0.134 0.009,0.201 0.842,17.728 4.676,34.672 11.009,50.338 0.047,0.117 0.093,0.233 0.139,0.349 0.119,0.29 0.239,0.579 0.359,0.869 0.14,0.337 0.279,0.674 0.42,1.01 0.029,0.068 0.058,0.136 0.088,0.204 6.607,15.606 15.899,30.344 27.877,43.511 0.014,0.016 0.029,0.032 0.044,0.048 0.39,0.43 0.784,0.858 1.18,1.284 0.082,0.088 0.165,0.176 0.247,0.264 0.338,0.36 0.675,0.72 1.016,1.078 0.159,0.166 0.319,0.331 0.478,0.496 0.274,0.285 0.548,0.571 0.824,0.854 0.29,0.298 0.583,0.592 0.876,0.886 0.139,0.142 0.277,0.284 0.418,0.424 L 2.147,20.993 C 1.057,14.106 0.343,7.172 0.01,0.222 0.006,0.148 0.003,0.074 0,0"
             style="fill:#028390;fill-opacity:1;fill-rule:nonzero;stroke:none"
             id="path40" /></g><g
           id="g42"
           transform="translate(550.9341,345.9238)"><path
             d="m 0,0 c -21.076,-21.075 -68.504,-68.504 -109.095,-109.095 -9.015,-9.014 -17.692,-17.692 -25.669,-25.669 9.038,-9.039 17.723,-17.723 25.669,-25.669 7.946,7.946 16.631,16.63 25.669,25.669 41.009,41.008 89.314,89.314 109.095,109.095 7.205,7.205 13.709,14.845 19.519,22.832 V 109.09 C 45.187,69.607 30.124,30.125 0,0"
             style="fill:#20a69a;fill-opacity:1;fill-rule:nonzero;stroke:none"
             id="path44" /></g><g
           id="g46"
           transform="translate(576.0845,590.2949)"><path
             d="m 0,0 c -0.38,0.377 -0.761,0.755 -1.144,1.129 -0.346,0.339 -0.697,0.674 -1.046,1.01 -0.207,0.199 -0.414,0.4 -0.622,0.598 -0.439,0.419 -0.881,0.834 -1.324,1.248 -0.112,0.104 -0.222,0.209 -0.334,0.313 -0.524,0.488 -1.051,0.973 -1.581,1.454 -0.021,0.02 -0.042,0.04 -0.063,0.059 -15.737,14.299 -33.876,26.001 -53.74,34.431 -0.088,0.038 -0.176,0.076 -0.264,0.113 -0.41,0.173 -0.821,0.342 -1.233,0.513 -0.363,0.15 -0.725,0.301 -1.089,0.449 -0.138,0.057 -0.277,0.111 -0.415,0.167 -19.962,8.052 -41.013,12.588 -62.2,13.604 -0.073,0.004 -0.147,0.007 -0.22,0.01 -0.672,0.031 -1.344,0.06 -2.015,0.084 -0.21,0.007 -0.42,0.013 -0.63,0.02 -0.549,0.018 -1.098,0.036 -1.647,0.049 -0.377,0.009 -0.754,0.015 -1.132,0.021 -0.396,0.008 -0.792,0.017 -1.188,0.022 -0.784,0.009 -1.57,0.015 -2.357,0.015 h -0.002 c -0.787,0 -1.573,-0.006 -2.358,-0.015 -0.396,-0.005 -0.791,-0.014 -1.186,-0.022 -0.378,-0.006 -0.756,-0.012 -1.134,-0.021 -0.549,-0.013 -1.098,-0.031 -1.648,-0.049 -0.209,-0.007 -0.419,-0.013 -0.629,-0.02 -0.672,-0.024 -1.343,-0.053 -2.015,-0.084 -0.073,-0.003 -0.146,-0.006 -0.219,-0.01 -21.212,-1.018 -42.287,-5.562 -62.27,-13.632 -0.109,-0.044 -0.218,-0.087 -0.327,-0.131 -0.393,-0.159 -0.784,-0.323 -1.176,-0.485 -0.382,-0.159 -0.766,-0.316 -1.147,-0.477 -0.117,-0.05 -0.233,-0.1 -0.35,-0.15 -19.827,-8.423 -37.934,-20.107 -53.647,-34.38 -0.059,-0.054 -0.118,-0.109 -0.178,-0.163 -0.491,-0.448 -0.981,-0.898 -1.468,-1.35 -0.161,-0.15 -0.321,-0.302 -0.481,-0.452 -0.395,-0.369 -0.788,-0.738 -1.179,-1.11 -0.284,-0.271 -0.566,-0.545 -0.848,-0.818 -0.274,-0.264 -0.55,-0.526 -0.822,-0.792 -0.563,-0.549 -1.123,-1.103 -1.681,-1.66 l -0.006,-0.006 c -0.131,-0.13 -0.26,-0.264 -0.39,-0.395 -0.419,-0.42 -0.836,-0.842 -1.25,-1.265 -0.322,-0.331 -0.641,-0.664 -0.961,-0.996 -0.216,-0.225 -0.433,-0.448 -0.648,-0.674 -0.408,-0.428 -0.813,-0.859 -1.216,-1.291 -0.115,-0.122 -0.23,-0.244 -0.345,-0.367 -0.479,-0.515 -0.955,-1.033 -1.429,-1.554 -0.028,-0.03 -0.056,-0.061 -0.084,-0.091 -14.293,-15.731 -25.991,-33.863 -34.419,-53.718 -0.04,-0.094 -0.082,-0.189 -0.122,-0.284 -0.17,-0.403 -0.336,-0.807 -0.503,-1.211 -0.154,-0.371 -0.308,-0.741 -0.459,-1.112 -0.053,-0.129 -0.104,-0.26 -0.157,-0.39 -5.415,-13.421 -9.24,-27.333 -11.475,-41.448 l 79.098,79.098 c 0.012,0.011 0.023,0.023 0.035,0.035 0.155,0.155 0.313,0.308 0.469,0.463 0.291,0.288 0.581,0.577 0.875,0.864 0.284,0.277 0.57,0.551 0.855,0.825 0.166,0.159 0.33,0.32 0.496,0.478 0.358,0.341 0.717,0.678 1.077,1.014 0.089,0.083 0.176,0.166 0.265,0.249 0.426,0.396 0.854,0.789 1.283,1.181 l 0.049,0.044 c 13.165,11.975 27.901,21.266 43.503,27.873 0.072,0.03 0.143,0.061 0.215,0.092 0.333,0.14 0.666,0.278 1,0.415 0.293,0.122 0.585,0.244 0.878,0.363 0.113,0.046 0.226,0.091 0.338,0.136 15.67,6.334 32.617,10.17 50.349,11.012 l 0.193,0.009 c 0.538,0.025 1.077,0.048 1.616,0.067 0.176,0.007 0.351,0.011 0.526,0.017 0.439,0.014 0.878,0.029 1.318,0.039 0.314,0.008 0.628,0.012 0.943,0.018 0.311,0.006 0.623,0.013 0.935,0.017 1.274,0.016 2.549,0.016 3.823,0 0.313,-0.004 0.626,-0.011 0.938,-0.017 0.313,-0.006 0.626,-0.01 0.939,-0.018 0.441,-0.01 0.881,-0.025 1.321,-0.039 0.174,-0.006 0.349,-0.01 0.523,-0.017 0.541,-0.019 1.08,-0.043 1.619,-0.068 0.064,-0.003 0.127,-0.005 0.191,-0.008 17.726,-0.842 34.669,-4.675 50.335,-11.007 0.118,-0.048 0.237,-0.094 0.355,-0.142 0.288,-0.117 0.575,-0.237 0.863,-0.356 0.338,-0.14 0.678,-0.28 1.016,-0.423 0.066,-0.027 0.131,-0.056 0.196,-0.084 15.611,-6.608 30.354,-15.903 43.525,-27.886 l 0.016,-0.014 c 0.44,-0.401 0.879,-0.804 1.316,-1.21 0.074,-0.07 0.148,-0.14 0.223,-0.209 0.373,-0.35 0.746,-0.7 1.117,-1.054 0.147,-0.139 0.291,-0.28 0.437,-0.42 0.305,-0.293 0.611,-0.586 0.915,-0.882 0.239,-0.234 0.475,-0.47 0.713,-0.705 0.209,-0.206 0.418,-0.41 0.626,-0.618 0.002,-0.003 0.005,-0.005 0.008,-0.008 l 79.123,-79.124 c -2.233,14.107 -6.055,28.012 -11.465,41.426 -0.057,0.139 -0.112,0.279 -0.168,0.418 -0.148,0.363 -0.299,0.725 -0.449,1.087 -0.17,0.412 -0.34,0.824 -0.513,1.235 -0.037,0.087 -0.075,0.175 -0.113,0.263 -8.43,19.865 -20.133,38.007 -34.436,53.744 -0.013,0.015 -0.026,0.03 -0.04,0.044 -0.487,0.536 -0.978,1.07 -1.471,1.6 -0.097,0.103 -0.194,0.206 -0.291,0.31 -0.421,0.451 -0.844,0.901 -1.27,1.348 C 3.579,-3.644 3.391,-3.45 3.204,-3.256 2.855,-2.894 2.507,-2.53 2.156,-2.17 1.823,-1.829 1.486,-1.49 1.149,-1.151 0.768,-0.766 0.385,-0.382 0,0"
             style="fill:#455b65;fill-opacity:1;fill-rule:nonzero;stroke:none"
             id="path48" /></g><g
           id="g50"
           transform="translate(545.5015,340.5068)"><path
             d="M 0,0 C 1.806,1.645 3.589,3.329 5.334,5.074 65.69,65.431 65.72,163.258 5.4,223.578 c -30.115,30.115 -69.58,45.184 -109.063,45.216 -39.483,-0.032 -78.947,-15.101 -109.063,-45.216 -60.319,-60.32 -60.289,-158.147 0.067,-218.504 1.758,-1.758 3.555,-3.453 5.374,-5.108 L -103.396,-103.923 0.263,-0.263 Z"
             style="fill:#5ec2d6;fill-opacity:1;fill-rule:nonzero;stroke:none"
             id="path52" /></g><g
           id="g54"
           transform="translate(478.1411,455.0181)"><path
             d="m 0,0 c 0,-20.049 -16.253,-36.302 -36.302,-36.302 -20.049,0 -36.302,16.253 -36.302,36.302 0,20.049 16.253,36.302 36.302,36.302 C -16.253,36.302 0,20.049 0,0"
             style="fill:#ffffff;fill-opacity:1;fill-rule:nonzero;stroke:none"
             id="path56" /></g><g
           id="g58"
           transform="translate(1876.3926,491.2749)"><path
             d="M 0,0 C 18.686,0 33.833,15.148 33.833,33.834 33.833,52.52 18.686,67.668 0,67.668 -18.687,67.668 -33.835,52.52 -33.835,33.834 -33.835,15.148 -18.687,0 0,0"
             style="fill:#5ec2d6;fill-opacity:1;fill-rule:nonzero;stroke:none"
             id="path60" /></g><g
           id="g62"
           transform="translate(969.4712,252.1826)"><path
             d="m 0,0 c 0,-10.064 3.539,-15.092 10.628,-15.092 2.265,0 5.17,0.638 8.714,1.911 6.517,2.41 10.488,3.616 11.907,3.616 3.256,0 5.808,-2.057 7.65,-6.165 l 6.589,-15.094 c 0.852,-2.125 1.277,-4.111 1.277,-5.951 0,-3.261 -2.695,-7.227 -8.079,-11.904 -10.77,-8.927 -24.871,-13.393 -42.301,-13.393 -31.746,0 -47.615,21.184 -47.615,63.558 v 303.132 c 0,3.825 1.13,7.084 3.4,9.777 2.266,2.691 4.96,4.039 8.079,4.039 h 28.482 c 3.259,0 5.954,-1.348 8.079,-4.039 2.125,-2.693 3.19,-5.952 3.19,-9.777 z"
             style="fill:#455b65;fill-opacity:1;fill-rule:nonzero;stroke:none"
             id="path64" /></g><g
           id="g66"
           transform="translate(1082.3936,368.5669)"><path
             d="m 0,0 c -5.313,-7.867 -9.175,-16.794 -11.585,-26.785 -2.41,-9.992 -3.612,-20.124 -3.612,-30.399 0,-10.274 1.382,-20.124 4.145,-29.547 2.762,-9.426 6.907,-17.823 12.436,-25.19 12.186,-16.155 29.192,-24.233 51.017,-24.233 22.247,0 39.113,7.934 50.593,23.809 10.203,13.887 15.305,32.806 15.305,56.757 0,35.851 -11.764,60.582 -35.288,74.187 -8.645,4.959 -19.098,7.44 -31.353,7.44 -12.26,0 -22.608,-2.373 -31.038,-7.122 C 12.188,14.169 5.315,7.865 0,0 m -68.342,-54.101 c 0,18.421 3.082,35.321 9.249,50.7 6.164,15.374 14.63,28.517 25.401,39.432 22.534,22.814 50.945,34.223 85.242,34.223 38.404,0 68.162,-11.409 89.281,-34.223 20.407,-21.97 30.61,-52.153 30.61,-90.557 0,-37.131 -11.55,-67.459 -34.649,-90.982 -22.532,-23.099 -50.949,-34.65 -85.242,-34.65 -36.137,0 -65.189,11.833 -87.154,35.501 -21.825,23.097 -32.738,53.282 -32.738,90.556"
             style="fill:#455b65;fill-opacity:1;fill-rule:nonzero;stroke:none"
             id="path68" /></g><g
           id="g70"
           transform="translate(1447.3735,338.9111)"><path
             d="m 0,0 c -11.622,0 -17.43,5.74 -17.43,17.219 0,13.18 -4.039,23.241 -12.118,30.186 -6.944,6.091 -16.262,9.141 -27.952,9.141 -11.691,0 -21.364,-2.412 -29.016,-7.227 -7.653,-4.819 -13.891,-10.986 -18.706,-18.495 -9.354,-14.741 -14.031,-32.453 -14.031,-53.142 0,-38.689 11.761,-64.058 35.287,-76.102 8.503,-4.394 17.926,-6.591 28.272,-6.591 10.343,0 18.846,1.134 25.508,3.402 6.66,2.264 12.613,4.746 17.857,7.44 5.242,2.691 9.811,5.173 13.711,7.44 3.896,2.265 7.121,3.401 9.673,3.401 5.102,0 9.141,-2.338 12.115,-7.016 l 4.677,-7.864 c 2.128,-3.687 3.19,-7.264 3.19,-10.733 0,-3.476 -1.418,-7.09 -4.252,-10.842 -2.837,-3.757 -6.626,-7.196 -11.372,-10.312 -4.75,-3.119 -10.171,-5.951 -16.262,-8.503 -6.095,-2.549 -12.402,-4.748 -18.92,-6.589 -31.177,-8.36 -59.662,-7.084 -85.453,3.827 -28.912,12.185 -48.823,34.01 -59.734,65.472 -5.388,15.588 -8.078,33.018 -8.078,52.293 0,19.272 2.869,36.564 8.609,51.869 5.739,15.306 13.712,28.272 23.916,38.9 21.113,21.823 48.678,32.736 82.69,32.736 30.043,0 53.07,-7.866 69.085,-23.595 C 24.729,62.85 31.462,45.987 31.462,25.722 31.462,8.574 22.672,0 5.102,0 Z"
             style="fill:#455b65;fill-opacity:1;fill-rule:nonzero;stroke:none"
             id="path72" /></g><g
           id="g74"
           transform="translate(1561.584,295.2285)"><path
             d="m 0,0 c -5.811,-4.326 -9.958,-8.61 -12.434,-12.86 -2.483,-4.253 -3.72,-9.247 -3.72,-14.987 0,-5.739 1.026,-10.841 3.083,-15.304 2.05,-4.464 4.922,-8.185 8.607,-11.162 7.792,-6.095 16.545,-9.14 26.253,-9.14 9.705,0 17.678,1.134 23.916,3.401 6.233,2.265 11.616,5.17 16.154,8.716 9.779,7.651 14.667,15.73 14.667,24.232 C 75.677,-16.476 69.795,-8.114 58.882,-2.02 49.105,3.647 37.553,6.483 24.235,6.483 13.887,6.483 5.809,4.322 0,0 m 142.424,-90.238 c 0,-7.514 -3.686,-11.266 -11.053,-11.266 h -20.62 c -5.526,0 -8.858,1.097 -9.99,3.296 -1.136,2.193 -1.774,4.177 -1.914,5.95 -0.142,1.773 -0.424,3.934 -0.849,6.484 -0.852,6.942 -2.057,14.456 -3.615,22.535 -11.055,-20.27 -28.414,-33.661 -52.079,-40.179 -8.364,-2.265 -17.575,-3.401 -27.637,-3.401 -10.063,0 -20.124,1.669 -30.186,4.996 -10.063,3.328 -18.991,8.256 -26.782,14.775 -17.575,14.736 -26.36,34.08 -26.36,58.03 0,26.218 9.637,46.27 28.91,60.159 15.87,11.195 36.276,16.795 61.221,16.795 24.941,0 46.055,-7.301 63.347,-21.897 0.425,4.817 0.639,10.842 0.639,18.07 0,7.228 -1.419,14.454 -4.253,21.682 -2.837,7.229 -6.876,13.251 -12.115,18.07 -10.773,9.492 -25.795,14.243 -45.067,14.243 -17.292,0 -34.862,-4.751 -52.717,-14.243 -3.401,-1.845 -6.377,-2.766 -8.93,-2.766 -3.825,0 -7.512,3.755 -11.053,11.269 -3.825,7.651 -5.739,13.178 -5.739,16.578 0,6.236 4.677,12.258 14.029,18.071 17.858,11.053 41.734,16.579 71.638,16.579 27.209,0 49.743,-7.438 67.598,-22.319 21.114,-17.856 31.673,-43.083 31.673,-75.676 0,-14.456 -2.338,-32.666 -7.013,-54.632 12.044,-34.296 18.35,-61.362 18.917,-81.203"
             style="fill:#455b65;fill-opacity:1;fill-rule:nonzero;stroke:none"
             id="path76" /></g><g
           id="g78"
           transform="translate(1785.623,252.1826)"><path
             d="m 0,0 c 0,-10.064 3.538,-15.092 10.628,-15.092 2.265,0 5.17,0.638 8.714,1.911 6.517,2.41 10.488,3.616 11.906,3.616 3.257,0 5.809,-2.057 7.651,-6.165 l 6.592,-15.094 c 0.849,-2.125 1.274,-4.111 1.274,-5.951 0,-3.261 -2.693,-7.227 -8.078,-11.904 -10.771,-8.927 -24.872,-13.393 -42.301,-13.393 -31.747,0 -47.616,21.184 -47.616,63.558 v 303.132 c 0,3.825 1.13,7.084 3.401,9.777 2.265,2.691 4.959,4.039 8.078,4.039 h 28.482 c 3.259,0 5.954,-1.348 8.079,-4.039 2.125,-2.693 3.19,-5.952 3.19,-9.777 z"
             style="fill:#455b65;fill-opacity:1;fill-rule:nonzero;stroke:none"
             id="path80" /></g><g
           id="g82"
           transform="translate(1899.4043,252.1826)"><path
             d="m 0,0 c 0,-10.064 3.327,-15.092 9.99,-15.092 2.265,0 4.817,0.638 7.654,1.911 5.526,2.41 9.278,3.616 11.265,3.616 2.978,0 5.385,-2.057 7.228,-6.165 l 6.589,-14.88 c 1.133,-2.412 1.7,-4.678 1.7,-6.803 0,-6.096 -5.244,-11.764 -15.73,-17.006 -9.921,-5.102 -19.737,-7.653 -29.442,-7.653 -9.708,0 -17.467,1.062 -23.275,3.189 -5.814,2.126 -10.773,5.667 -14.881,10.628 -8.221,10.204 -12.328,26.785 -12.328,49.741 v 165.807 c 0,3.969 1.13,7.299 3.401,9.993 2.265,2.69 4.959,4.039 8.078,4.039 h 28.485 c 3.256,0 5.951,-1.349 8.076,-4.039 2.128,-2.694 3.19,-6.024 3.19,-9.993 z"
             style="fill:#455b65;fill-opacity:1;fill-rule:nonzero;stroke:none"
             id="path84" /></g><g
           id="g86"
           transform="translate(2524.7656,198.8203)"><path
             d="m 0,0 c 0,-9.454 -4.298,-14.169 -12.919,-14.169 h -9.377 c -8.335,0 -13.83,3.334 -16.461,10.002 -2.917,7.632 -6.043,18.259 -9.377,31.881 -5.834,-14.586 -15.731,-26.086 -29.692,-34.485 -13.961,-8.401 -31.36,-12.607 -52.196,-12.607 -27.219,0 -47.3,8.504 -60.207,25.525 -12.918,17.008 -19.377,42.117 -19.377,75.326 V 207.12 c 0,3.887 1.21,7.149 3.646,9.793 2.422,2.637 5.86,3.959 10.314,3.959 h 22.908 c 9.168,0 13.752,-4.584 13.752,-13.752 V 83.765 c 0,-33.209 7.71,-52.379 23.129,-57.51 5.001,-1.667 10.939,-2.5 17.815,-2.5 6.877,0 13.961,1.589 21.254,4.792 7.293,3.19 13.856,7.424 19.691,12.711 13.049,12.085 19.586,25.902 19.586,41.465 V 207.12 c 0,3.887 1.173,7.149 3.543,9.793 2.37,2.637 6.12,3.959 11.252,3.959 h 21.879 c 4.87,0 8.412,-1.322 10.626,-3.959 2.214,-2.644 3.334,-5.906 3.334,-9.793 V 76.889 c 0,-29.315 2.084,-52.926 6.251,-70.846 C -0.209,4.507 0,2.501 0,0"
             style="fill:#455b65;fill-opacity:1;fill-rule:nonzero;stroke:none"
             id="path88" /></g><g
           id="g90"
           transform="translate(2621.5166,241.1201)"><path
             d="m 0,0 c 0,-9.872 3.256,-14.795 9.794,-14.795 2.214,0 4.714,0.625 7.501,1.876 5.417,2.356 9.09,3.542 11.043,3.542 2.918,0 5.274,-2.019 7.085,-6.043 l 6.46,-14.586 c 1.106,-2.37 1.666,-4.584 1.666,-6.668 0,-5.977 -5.144,-11.538 -15.419,-16.669 -9.729,-5.001 -19.353,-7.501 -28.859,-7.501 -9.52,0 -17.125,1.041 -22.817,3.125 -5.704,2.084 -10.561,5.548 -14.586,10.419 -8.06,10.001 -12.085,26.254 -12.085,48.758 v 162.528 c 0,3.888 1.107,7.15 3.334,9.794 2.214,2.637 4.858,3.959 7.918,3.959 h 27.922 c 3.19,0 5.834,-1.322 7.918,-3.959 C -1.042,171.136 0,167.874 0,163.986 Z"
             style="fill:#5ec2d6;fill-opacity:1;fill-rule:nonzero;stroke:none"
             id="path92" /></g><g
           id="g94"
           transform="translate(2754.5176,222.8877)"><path
             d="m 0,0 25.213,2.083 h 76.68 c 3.19,0 5.938,-1.016 8.23,-3.02 2.292,-2.019 3.439,-4.481 3.439,-7.398 v -15.003 c 0,-7.227 -1.186,-11.668 -3.543,-13.335 -3.621,-2.787 -9.376,-4.168 -17.294,-4.168 H -43.758 c -8.894,0 -15.08,4.298 -18.545,12.919 -1.25,2.917 -1.875,6.382 -1.875,10.419 0,6.107 3.959,14.924 11.877,26.463 l 82.098,117.936 17.086,22.921 c 0.834,0.971 1.251,1.804 1.251,2.501 0,0.69 -0.912,1.041 -2.709,1.041 l -30.422,-2.083 h -59.386 c -6.668,0 -10.978,0.97 -12.919,2.917 -3.334,3.334 -5.001,8.751 -5.001,16.253 v 13.544 c 0,2.774 1.108,5.17 3.334,7.189 2.214,2.011 4.923,3.021 8.127,3.021 H 90.849 c 5.691,0 9.794,-1.667 12.294,-5.001 4.168,-5.144 6.251,-10.106 6.251,-14.898 0,-4.793 -0.495,-8.648 -1.458,-11.565 -0.977,-2.917 -2.163,-5.626 -3.543,-8.126 -1.393,-2.501 -2.917,-4.864 -4.584,-7.085 -1.667,-2.227 -3.125,-4.311 -4.375,-6.251 L 18.962,25.838 -0.625,2.917 C -1.185,2.214 -1.459,1.562 -1.459,0.937 -1.459,0.312 -0.977,0 0,0"
             style="fill:#5ec2d6;fill-opacity:1;fill-rule:nonzero;stroke:none"
             id="path96" /></g><g
           id="g98"
           transform="translate(2597.9131,489.1304)"><path
             d="M 0,0 C 18.686,0 33.834,15.147 33.834,33.833 33.834,52.52 18.686,67.668 0,67.668 -18.686,67.668 -33.834,52.52 -33.834,33.833 -33.834,15.147 -18.686,0 0,0"
             style="fill:#5ec2d6;fill-opacity:1;fill-rule:nonzero;stroke:none"
             id="path100" /></g><g
           id="g102"
           transform="translate(2028.54,348.1611)"><path
             d="m 0,0 c 0,-16.568 1.946,-32.287 5.842,-47.158 3.893,-14.869 9.878,-28.039 17.951,-39.51 17.842,-25.352 42.978,-38.023 75.409,-38.023 32.57,0 57.779,12.107 75.623,36.323 16.144,21.95 24.217,51.122 24.217,87.519 0,33.138 -8.285,60.467 -24.855,81.995 -18.267,23.367 -43.194,35.05 -74.773,35.05 -30.449,0 -54.665,-10.907 -72.648,-32.714 C 8.922,62.098 0,34.271 0,0 m 237.171,-182.684 c 7.435,1.275 15.295,1.912 23.579,1.912 8.284,0 12.427,-4.743 12.427,-14.232 0,-2.549 -0.638,-6.936 -1.912,-13.171 -1.275,-6.229 -2.693,-10.726 -4.249,-13.488 -1.56,-2.761 -3.611,-4.919 -6.161,-6.479 -4.39,-2.974 -10.763,-4.462 -19.117,-4.462 -8.357,0 -16.712,0.356 -25.066,1.064 -8.358,0.71 -17.206,1.984 -26.552,3.823 -9.348,1.842 -18.907,4.285 -28.679,7.328 -9.77,3.048 -19.472,6.834 -29.101,11.366 -21.102,10.196 -38.661,23.084 -52.681,38.66 -41.92,4.388 -75.623,23.081 -101.113,56.08 -24.077,31.296 -36.112,69.177 -36.112,113.645 0,48.29 14.514,87.871 43.547,118.745 29.314,31.154 67.264,46.734 113.858,46.734 49.564,0 88.438,-15.932 116.621,-47.796 26.765,-30.163 40.148,-69.535 40.148,-118.107 0,-41.92 -10.552,-77.607 -31.651,-107.061 -22.234,-31.014 -52.257,-49.568 -90.068,-55.654 26.765,-13.878 53.034,-20.819 78.809,-20.819 8.212,0 16.038,0.638 23.473,1.912"
             style="fill:#455b65;fill-opacity:1;fill-rule:nonzero;stroke:none"
             id="path104" /></g></g></g></g></svg>
