<?xml version="1.0" encoding="UTF-8" standalone="no"?>
<svg
   xmlns:dc="http://purl.org/dc/elements/1.1/"
   xmlns:cc="http://creativecommons.org/ns#"
   xmlns:rdf="http://www.w3.org/1999/02/22-rdf-syntax-ns#"
   xmlns:svg="http://www.w3.org/2000/svg"
   xmlns="http://www.w3.org/2000/svg"
   viewBox="0 0 3466.6667 1066.6667"
   height="1066.6667"
   width="3466.6667"
   xml:space="preserve"
   id="svg2"
   version="1.1"><metadata
     id="metadata8"><rdf:RDF><cc:Work
         rdf:about=""><dc:format>image/svg+xml</dc:format><dc:type
           rdf:resource="http://purl.org/dc/dcmitype/StillImage" /></cc:Work></rdf:RDF></metadata><defs
     id="defs6"><clipPath
       id="clipPath18"
       clipPathUnits="userSpaceOnUse"><path
         id="path16"
         d="M 0,800 H 2600 V 0 H 0 Z" /></clipPath></defs><g
     transform="matrix(1.3333333,0,0,-1.3333333,0,1066.6667)"
     id="g10"><g
       id="g12"><g
         clip-path="url(#clipPath18)"
         id="g14"><g
           transform="translate(671.7866,451.0098)"
           id="g20"><path
             id="path22"
             style="fill:#fad4ce;fill-opacity:1;fill-rule:nonzero;stroke:none"
             d="m 0,0 c 60.251,-60.251 60.251,-157.938 0,-218.189 -60.251,-60.251 -157.938,-60.251 -218.189,0 l -166.851,166.85 c -60.252,60.251 -60.252,157.938 0,218.19 60.251,60.251 157.938,60.251 218.189,0 C -133.384,133.384 -33.467,33.466 0,0 m -410.709,192.52 c -74.429,-74.428 -74.428,-195.1 0,-269.528 l 166.85,-166.85 c 74.428,-74.429 195.1,-74.429 269.528,0 74.428,74.427 74.428,195.099 0,269.527 -31.502,31.502 -135.349,135.349 -166.851,166.851 -74.427,74.428 -195.1,74.428 -269.527,0" /></g><g
           transform="translate(550.1245,272.8027)"
           id="g24"><path
             id="path26"
             style="fill:#b6e1f8;fill-opacity:1;fill-rule:nonzero;stroke:none"
             d="m 0,0 c 0,-85.208 -69.076,-154.283 -154.283,-154.283 -85.209,0 -154.283,69.075 -154.283,154.283 v 235.963 c 0,85.207 69.074,154.283 154.283,154.283 C -69.076,390.246 0,321.17 0,235.963 Z m -154.283,426.548 c -105.258,0 -190.585,-85.328 -190.585,-190.585 V 0 c 0,-105.257 85.327,-190.585 190.585,-190.585 105.257,0 190.585,85.328 190.585,190.585 v 235.963 c 0,105.257 -85.328,190.585 -190.585,190.585" /></g><g
           transform="translate(338.0854,232.8203)"
           id="g28"><path
             id="path30"
             style="fill:#d3eae4;fill-opacity:1;fill-rule:nonzero;stroke:none"
             d="m 0,0 c -60.251,-60.251 -157.938,-60.251 -218.189,0 -60.252,60.251 -60.251,157.938 0,218.189 l 166.85,166.851 c 60.252,60.251 157.938,60.251 218.19,0 60.251,-60.251 60.251,-157.938 0,-218.189 z m 192.52,410.709 c -74.428,74.428 -195.1,74.428 -269.528,0 -31.502,-31.502 -135.349,-135.349 -166.851,-166.851 -74.428,-74.427 -74.428,-195.099 0,-269.528 74.428,-74.428 195.1,-74.428 269.528,0 31.502,31.502 135.349,135.349 166.851,166.852 74.428,74.427 74.428,195.099 0,269.527" /></g><g
           transform="translate(286.7466,399.6709)"
           id="g32"><path
             id="path34"
             style="fill:#f18b84;fill-opacity:1;fill-rule:nonzero;stroke:none"
             d="M 0,0 C -30.125,30.125 -45.187,69.606 -45.188,109.089 V -2.837 c 5.81,-7.987 12.313,-15.628 19.519,-22.832 19.781,-19.781 68.086,-68.087 109.094,-109.096 7.977,7.978 16.655,16.655 25.67,25.67 C 68.504,-68.504 21.076,-21.076 0,0" /></g><g
           transform="translate(506.2583,616.521)"
           id="g36"><path
             id="path38"
             style="fill:#1e8692;fill-opacity:1;fill-rule:nonzero;stroke:none"
             d="m 0,0 c 0.298,-0.306 0.593,-0.613 0.888,-0.92 0.137,-0.143 0.277,-0.286 0.414,-0.43 0.355,-0.373 0.706,-0.747 1.057,-1.123 0.068,-0.072 0.137,-0.145 0.205,-0.218 0.408,-0.438 0.811,-0.877 1.213,-1.319 0.004,-0.004 0.008,-0.008 0.011,-0.012 11.983,-13.171 21.278,-27.914 27.887,-43.525 0.028,-0.066 0.056,-0.131 0.084,-0.197 0.143,-0.339 0.283,-0.678 0.423,-1.017 0.119,-0.287 0.238,-0.574 0.356,-0.862 0.048,-0.118 0.095,-0.237 0.143,-0.356 6.331,-15.665 10.164,-32.607 11.007,-50.334 0.002,-0.064 0.005,-0.128 0.008,-0.192 0.025,-0.538 0.048,-1.078 0.067,-1.618 0.007,-0.174 0.011,-0.35 0.017,-0.525 0.014,-0.439 0.029,-0.878 0.039,-1.318 0.008,-0.314 0.013,-0.628 0.018,-0.942 0.006,-0.312 0.013,-0.623 0.017,-0.936 0.008,-0.639 0.012,-1.278 0.012,-1.917 v -111.926 c 24.199,33.27 36.302,72.6 36.302,111.932 0,0.787 -0.005,1.573 -0.015,2.358 -0.005,0.396 -0.014,0.791 -0.021,1.187 -0.007,0.377 -0.013,0.755 -0.022,1.133 -0.013,0.549 -0.031,1.097 -0.049,1.645 -0.007,0.211 -0.012,0.422 -0.02,0.632 -0.024,0.671 -0.052,1.342 -0.084,2.013 -0.003,0.074 -0.006,0.148 -0.01,0.222 -0.333,6.95 -1.047,13.885 -2.137,20.772 L -1.313,1.331 c 0.201,-0.203 0.4,-0.407 0.601,-0.61 C -0.475,0.481 -0.236,0.242 0,0" /></g><g
           transform="translate(205.4668,517.7339)"
           id="g40"><path
             id="path42"
             style="fill:#1e8692;fill-opacity:1;fill-rule:nonzero;stroke:none"
             d="M 0,0 C -0.031,-0.67 -0.06,-1.342 -0.084,-2.013 -0.091,-2.223 -0.097,-2.434 -0.104,-2.645 -0.122,-3.193 -0.14,-3.741 -0.153,-4.29 -0.162,-4.667 -0.167,-5.045 -0.174,-5.423 -0.182,-5.819 -0.191,-6.214 -0.196,-6.61 -0.205,-7.395 -0.21,-8.181 -0.21,-8.968 -0.21,-48.3 11.892,-87.63 36.091,-120.9 V -8.974 c 0,0.64 0.005,1.279 0.013,1.917 0.003,0.312 0.01,0.624 0.016,0.935 0.006,0.314 0.01,0.629 0.018,0.943 0.01,0.438 0.025,0.874 0.039,1.311 0.006,0.178 0.011,0.356 0.017,0.535 0.019,0.537 0.042,1.072 0.067,1.608 0.003,0.067 0.006,0.134 0.009,0.202 0.842,17.727 4.677,34.671 11.009,50.338 0.047,0.116 0.093,0.232 0.14,0.348 0.118,0.29 0.239,0.579 0.358,0.869 0.14,0.337 0.279,0.674 0.42,1.01 0.029,0.068 0.059,0.136 0.088,0.204 6.607,15.606 15.899,30.344 27.877,43.511 0.014,0.016 0.029,0.032 0.044,0.048 0.391,0.43 0.784,0.858 1.18,1.284 0.082,0.088 0.165,0.176 0.248,0.264 0.337,0.36 0.675,0.72 1.015,1.078 0.159,0.166 0.319,0.331 0.478,0.496 0.275,0.285 0.548,0.571 0.825,0.854 0.29,0.298 0.582,0.592 0.875,0.886 0.14,0.142 0.277,0.284 0.418,0.425 C 65.22,84.066 34.01,52.856 2.147,20.993 1.057,14.107 0.343,7.172 0.01,0.222 0.006,0.148 0.003,0.074 0,0" /></g><g
           transform="translate(504.936,399.6709)"
           id="g44"><path
             id="path46"
             style="fill:#2da89c;fill-opacity:1;fill-rule:nonzero;stroke:none"
             d="m 0,0 c -21.076,-21.076 -68.504,-68.505 -109.095,-109.095 -9.015,-9.015 -17.692,-17.692 -25.669,-25.67 9.039,-9.038 17.723,-17.722 25.669,-25.669 7.946,7.947 16.631,16.631 25.67,25.669 41.008,41.009 89.313,89.315 109.094,109.095 7.205,7.205 13.709,14.845 19.519,22.833 V 109.089 C 45.187,69.606 30.125,30.124 0,0" /></g><g
           transform="translate(530.0864,644.0415)"
           id="g48"><path
             id="path50"
             style="fill:#4c5f68;fill-opacity:1;fill-rule:nonzero;stroke:none"
             d="M 0,0 C -0.38,0.378 -0.761,0.755 -1.143,1.129 -1.49,1.468 -1.84,1.803 -2.19,2.139 -2.397,2.338 -2.604,2.54 -2.812,2.738 -3.25,3.156 -3.693,3.571 -4.136,3.985 -4.247,4.089 -4.358,4.194 -4.47,4.298 c -0.524,0.488 -1.051,0.973 -1.581,1.454 -0.021,0.02 -0.042,0.04 -0.063,0.059 -15.737,14.299 -33.876,26.002 -53.74,34.431 -0.088,0.038 -0.176,0.076 -0.264,0.113 -0.409,0.173 -0.821,0.343 -1.233,0.513 -0.362,0.15 -0.725,0.301 -1.089,0.449 -0.138,0.057 -0.276,0.111 -0.414,0.167 -19.963,8.052 -41.013,12.588 -62.201,13.604 -0.073,0.004 -0.147,0.007 -0.22,0.01 -0.672,0.031 -1.343,0.06 -2.015,0.084 -0.21,0.008 -0.42,0.013 -0.629,0.02 -0.55,0.018 -1.099,0.036 -1.648,0.049 -0.377,0.009 -0.754,0.015 -1.131,0.022 -0.397,0.007 -0.793,0.016 -1.189,0.021 -0.784,0.01 -1.57,0.015 -2.357,0.015 h -0.001 c -0.788,0 -1.574,-0.005 -2.359,-0.015 -0.395,-0.005 -0.79,-0.014 -1.186,-0.021 -0.377,-0.007 -0.756,-0.013 -1.133,-0.022 -0.55,-0.013 -1.099,-0.031 -1.648,-0.049 -0.21,-0.007 -0.42,-0.012 -0.63,-0.02 -0.672,-0.024 -1.343,-0.053 -2.015,-0.084 -0.073,-0.003 -0.146,-0.006 -0.219,-0.01 -21.212,-1.017 -42.287,-5.562 -62.27,-13.632 -0.108,-0.044 -0.218,-0.087 -0.327,-0.131 -0.392,-0.159 -0.783,-0.323 -1.176,-0.485 -0.382,-0.159 -0.765,-0.316 -1.146,-0.477 -0.118,-0.05 -0.234,-0.1 -0.351,-0.15 -19.827,-8.423 -37.934,-20.107 -53.647,-34.38 -0.059,-0.054 -0.118,-0.109 -0.178,-0.163 -0.491,-0.447 -0.981,-0.898 -1.468,-1.35 -0.161,-0.15 -0.321,-0.301 -0.481,-0.452 -0.394,-0.369 -0.788,-0.738 -1.179,-1.11 -0.283,-0.271 -0.566,-0.545 -0.848,-0.818 -0.274,-0.263 -0.549,-0.526 -0.822,-0.792 -0.563,-0.549 -1.123,-1.102 -1.681,-1.66 -0.002,-0.002 -0.004,-0.004 -0.006,-0.006 -0.131,-0.13 -0.259,-0.263 -0.39,-0.395 -0.418,-0.42 -0.836,-0.842 -1.25,-1.265 -0.322,-0.33 -0.641,-0.664 -0.961,-0.996 -0.216,-0.224 -0.433,-0.448 -0.648,-0.673 -0.407,-0.428 -0.812,-0.86 -1.216,-1.292 -0.115,-0.122 -0.23,-0.244 -0.345,-0.366 -0.479,-0.516 -0.955,-1.034 -1.429,-1.555 -0.028,-0.03 -0.056,-0.061 -0.084,-0.091 -14.293,-15.731 -25.991,-33.862 -34.419,-53.717 -0.04,-0.095 -0.081,-0.19 -0.121,-0.285 -0.171,-0.403 -0.337,-0.807 -0.504,-1.211 -0.154,-0.371 -0.308,-0.741 -0.459,-1.112 -0.053,-0.129 -0.104,-0.26 -0.157,-0.39 -5.415,-13.42 -9.239,-27.333 -11.475,-41.448 31.863,31.863 63.074,63.073 79.098,79.098 0.012,0.011 0.023,0.023 0.035,0.035 0.156,0.155 0.313,0.308 0.469,0.463 0.291,0.289 0.582,0.578 0.875,0.864 0.284,0.277 0.57,0.551 0.856,0.826 0.165,0.158 0.329,0.319 0.495,0.477 0.358,0.341 0.718,0.678 1.078,1.014 0.088,0.083 0.176,0.166 0.264,0.249 0.426,0.396 0.854,0.789 1.283,1.181 l 0.049,0.044 c 13.165,11.975 27.901,21.267 43.503,27.873 0.072,0.03 0.143,0.062 0.215,0.092 0.333,0.14 0.666,0.278 1,0.415 0.293,0.122 0.585,0.244 0.878,0.363 0.113,0.046 0.226,0.091 0.338,0.136 15.67,6.334 32.617,10.17 50.349,11.012 0.064,0.004 0.128,0.006 0.193,0.009 0.538,0.025 1.077,0.048 1.617,0.067 0.175,0.007 0.35,0.012 0.526,0.017 0.438,0.015 0.877,0.029 1.317,0.039 0.314,0.008 0.629,0.013 0.943,0.018 0.312,0.006 0.623,0.013 0.935,0.017 1.274,0.016 2.549,0.016 3.824,0 0.312,-0.004 0.625,-0.011 0.937,-0.017 0.313,-0.005 0.626,-0.01 0.94,-0.018 0.44,-0.01 0.88,-0.024 1.32,-0.039 0.175,-0.006 0.349,-0.01 0.524,-0.017 0.54,-0.019 1.08,-0.042 1.619,-0.067 0.063,-0.003 0.127,-0.005 0.19,-0.008 17.726,-0.843 34.669,-4.676 50.335,-11.008 0.118,-0.048 0.237,-0.094 0.355,-0.142 0.288,-0.117 0.575,-0.237 0.863,-0.356 0.339,-0.14 0.678,-0.28 1.017,-0.423 0.065,-0.027 0.13,-0.056 0.195,-0.084 15.611,-6.608 30.354,-15.903 43.526,-27.886 0.005,-0.005 0.01,-0.01 0.015,-0.014 0.44,-0.401 0.879,-0.804 1.316,-1.21 0.075,-0.07 0.148,-0.14 0.223,-0.209 0.373,-0.35 0.747,-0.7 1.117,-1.054 0.147,-0.139 0.291,-0.28 0.437,-0.42 0.305,-0.293 0.611,-0.586 0.915,-0.882 0.239,-0.234 0.476,-0.47 0.714,-0.705 0.208,-0.206 0.417,-0.41 0.625,-0.617 l 0.008,-0.009 79.124,-79.123 c -2.234,14.107 -6.056,28.011 -11.466,41.425 -0.057,0.139 -0.111,0.279 -0.168,0.418 -0.147,0.363 -0.299,0.725 -0.449,1.087 -0.17,0.412 -0.339,0.824 -0.513,1.235 -0.037,0.087 -0.075,0.175 -0.112,0.263 -8.431,19.866 -20.134,38.007 -34.436,53.744 -0.014,0.015 -0.027,0.03 -0.041,0.044 -0.487,0.536 -0.978,1.07 -1.471,1.6 -0.097,0.104 -0.194,0.206 -0.29,0.31 C 4.614,-4.736 4.191,-4.286 3.765,-3.839 3.579,-3.644 3.391,-3.45 3.204,-3.256 2.855,-2.894 2.508,-2.53 2.157,-2.17 1.823,-1.829 1.486,-1.49 1.149,-1.151 0.768,-0.766 0.385,-0.382 0,0" /></g><g
           transform="translate(499.5034,394.2539)"
           id="g52"><path
             id="path54"
             style="fill:#62c3d7;fill-opacity:1;fill-rule:nonzero;stroke:none"
             d="M 0,0 C 1.806,1.645 3.589,3.328 5.334,5.074 65.69,65.43 65.72,163.258 5.401,223.577 c -30.115,30.116 -69.58,45.184 -109.063,45.217 -39.484,-0.033 -78.948,-15.102 -109.063,-45.217 -60.32,-60.319 -60.29,-158.147 0.066,-218.503 1.758,-1.759 3.555,-3.454 5.374,-5.108 L -103.396,-103.923 0.263,-0.264 Z" /></g><g
           transform="translate(432.1431,508.7646)"
           id="g56"><path
             id="path58"
             style="fill:#ffffff;fill-opacity:1;fill-rule:nonzero;stroke:none"
             d="m 0,0 c 0,-20.049 -16.253,-36.302 -36.302,-36.302 -20.049,0 -36.302,16.253 -36.302,36.302 0,20.049 16.253,36.302 36.302,36.302 C -16.253,36.302 0,20.049 0,0" /></g><g
           transform="translate(861.7495,161.5068)"
           id="g60"><path
             id="path62"
             style="fill:#4c5f68;fill-opacity:1;fill-rule:nonzero;stroke:none"
             d="m 0,0 h 24.073 v -30.843 c -3.746,-1.07 -7.556,-1.88 -11.431,-2.429 -3.875,-0.549 -8.364,-0.825 -13.466,-0.825 -10.72,0 -19.067,2.855 -25.041,8.567 -5.974,5.712 -8.961,13.717 -8.961,24.011 0,6.594 1.476,12.37 4.434,17.332 2.951,4.958 7.207,8.746 12.761,11.366 5.554,2.614 12.061,3.925 19.52,3.925 7.556,0 14.595,-1.245 21.118,-3.731 L 19.81,20.866 C 13.417,23.295 7.265,24.51 1.356,24.51 c -8.622,0 -15.354,-2.299 -20.198,-6.898 -4.844,-4.598 -7.265,-10.974 -7.265,-19.131 0,-8.559 2.331,-15.052 6.997,-19.477 4.666,-4.425 11.522,-6.637 20.563,-6.637 4.908,0 9.703,0.506 14.385,1.519 v 19.52 L 0,-6.594 Z" /></g><g
           transform="translate(954.2271,197.8594)"
           id="g64"><path
             id="path66"
             style="fill:#4c5f68;fill-opacity:1;fill-rule:nonzero;stroke:none"
             d="m 0,0 c 1.55,1.793 3.223,3.962 5.012,6.507 1.795,2.545 3.206,4.757 4.239,6.637 h 9.785 V 12.232 C 17.615,10.354 15.5,8.039 12.69,5.292 9.881,2.545 7.443,0.419 5.376,-1.085 H 0 Z M 27.125,-69.581 H -12.351 V -6.16 h 39.476 v -6.551 H -4.117 v -20.432 h 29.352 v -6.506 H -4.117 v -23.338 h 31.242 z" /></g><g
           transform="translate(1090.0264,128.2783)"
           id="g68"><path
             id="path70"
             style="fill:#4c5f68;fill-opacity:1;fill-rule:nonzero;stroke:none"
             d="m 0,0 h -9.396 l -38.701,53.227 h -0.388 c 0.517,-6.247 0.776,-11.973 0.776,-17.179 V 0 h -7.605 v 63.421 h 9.3 l 38.603,-53.01 h 0.388 c -0.065,0.78 -0.21,3.288 -0.436,7.525 -0.226,4.237 -0.307,7.267 -0.242,9.089 V 63.421 H 0 Z" /></g><g
           transform="translate(1160.2363,197.8594)"
           id="g72"><path
             id="path74"
             style="fill:#4c5f68;fill-opacity:1;fill-rule:nonzero;stroke:none"
             d="m 0,0 c 1.55,1.793 3.223,3.962 5.012,6.507 1.795,2.545 3.206,4.757 4.239,6.637 h 9.785 V 12.232 C 17.615,10.354 15.5,8.039 12.69,5.292 9.881,2.545 7.443,0.419 5.376,-1.085 H 0 Z M 27.125,-69.581 H -12.351 V -6.16 h 39.476 v -6.551 H -4.117 v -20.432 h 29.352 v -6.506 H -4.117 v -23.338 h 31.242 z" /></g><g
           transform="translate(1248.9556,160.9863)"
           id="g76"><path
             id="path78"
             style="fill:#4c5f68;fill-opacity:1;fill-rule:nonzero;stroke:none"
             d="m 0,0 h 11.286 c 5.812,0 10.074,1.032 12.787,3.101 2.713,2.067 4.069,5.17 4.069,9.305 0,4.194 -1.382,7.216 -4.14,9.067 -2.764,1.851 -7.194,2.776 -13.297,2.776 H 0 Z m 0,-6.333 v -26.375 h -8.234 v 63.421 h 19.423 c 8.686,0 15.103,-1.489 19.252,-4.468 4.149,-2.979 6.226,-7.462 6.226,-13.448 0,-8.387 -4.748,-14.055 -14.241,-17.005 l 19.229,-28.5 H 31.919 L 14.773,-6.333 Z" /></g><g
           transform="translate(1379.5527,155.0869)"
           id="g80"><path
             id="path82"
             style="fill:#4c5f68;fill-opacity:1;fill-rule:nonzero;stroke:none"
             d="m 0,0 -8.234,19.65 c -1.066,2.488 -2.163,5.539 -3.293,9.154 -0.711,-2.777 -1.728,-5.827 -3.052,-9.154 L -22.91,0 Z M 11.383,-26.809 2.567,-6.638 h -28.383 l -8.719,-20.171 h -8.331 l 27.996,63.682 h 6.927 l 27.85,-63.682 z" /></g><g
           transform="translate(1464.252,128.2783)"
           id="g84"><path
             id="path86"
             style="fill:#4c5f68;fill-opacity:1;fill-rule:nonzero;stroke:none"
             d="M 0,0 H -8.234 V 56.87 H -30.66 v 6.551 H 22.426 V 56.87 H 0 Z" /></g><g
           transform="translate(1576.54,128.2783)"
           id="g88"><path
             id="path90"
             style="fill:#4c5f68;fill-opacity:1;fill-rule:nonzero;stroke:none"
             d="M 0,0 H -39.476 V 63.421 H 0 V 56.87 H -31.241 V 36.438 H -1.889 V 29.932 H -31.241 V 6.594 L 0,6.594 Z" /></g><g
           transform="translate(1683.2939,191.6992)"
           id="g92"><path
             id="path94"
             style="fill:#4c5f68;fill-opacity:1;fill-rule:nonzero;stroke:none"
             d="m 0,0 v -41.037 c 0,-7.231 -2.438,-12.913 -7.314,-17.048 -4.876,-4.136 -11.577,-6.204 -20.101,-6.204 -8.524,0 -15.122,2.083 -19.785,6.247 -4.669,4.164 -7,9.891 -7,17.179 V 0 h 8.234 v -41.384 c 0,-5.293 1.614,-9.356 4.843,-12.19 3.229,-2.834 7.977,-4.251 14.241,-4.251 5.974,0 10.575,1.423 13.804,4.271 3.229,2.849 4.844,6.935 4.844,12.256 l 0,41.298 z" /></g><g
           transform="translate(1748.8799,160.9863)"
           id="g96"><path
             id="path98"
             style="fill:#4c5f68;fill-opacity:1;fill-rule:nonzero;stroke:none"
             d="m 0,0 h 11.285 c 5.813,0 10.075,1.032 12.788,3.101 2.712,2.067 4.069,5.17 4.069,9.305 0,4.194 -1.382,7.216 -4.14,9.067 -2.765,1.851 -7.194,2.776 -13.298,2.776 H 0 Z m 0,-6.333 v -26.375 h -8.234 v 63.421 h 19.422 c 8.687,0 15.103,-1.489 19.252,-4.468 4.15,-2.979 6.226,-7.462 6.226,-13.448 0,-8.387 -4.746,-14.055 -14.24,-17.005 l 19.229,-28.5 H 31.92 L 14.773,-6.333 Z" /></g><g
           transform="translate(1954.8984,160.3359)"
           id="g100"><path
             id="path102"
             style="fill:#4c5f68;fill-opacity:1;fill-rule:nonzero;stroke:none"
             d="m 0,0 c 0,8.271 -2.318,14.503 -6.948,18.696 -4.638,4.194 -11.522,6.29 -20.66,6.29 h -11.964 v -50.667 h 10.026 c 9.817,0 17.195,2.16 22.136,6.487 C -2.47,-14.874 0,-8.474 0,0 m 8.719,0.26 c 0,-10.469 -3.171,-18.474 -9.52,-24.012 -6.342,-5.538 -15.473,-8.306 -27.388,-8.306 h -19.618 v 63.421 h 21.701 c 11.01,0 19.568,-2.732 25.67,-8.199 C 5.667,17.698 8.719,10.063 8.719,0.26" /></g><g
           transform="translate(2057.5,128.2783)"
           id="g104"><path
             id="path106"
             style="fill:#4c5f68;fill-opacity:1;fill-rule:nonzero;stroke:none"
             d="M 0,0 H -39.476 V 63.421 H 0 V 56.87 H -31.241 V 36.438 H -1.89 V 29.932 H -31.241 V 6.594 L 0,6.594 Z" /></g><g
           transform="translate(2178.3213,128.2783)"
           id="g108"><path
             id="path110"
             style="fill:#4c5f68;fill-opacity:1;fill-rule:nonzero;stroke:none"
             d="M 0,0 V 63.421 H 8.233 V 6.681 H 39.476 V 0 Z" /></g><path
           id="path112"
           style="fill:#4c5f68;fill-opacity:1;fill-rule:nonzero;stroke:none"
           d="m 2268.884,191.699 h 8.234 v -63.421 h -8.234 z" /><g
           transform="translate(2374.4365,128.2783)"
           id="g114"><path
             id="path116"
             style="fill:#4c5f68;fill-opacity:1;fill-rule:nonzero;stroke:none"
             d="M 0,0 H -39.476 V 63.421 H 0 V 56.87 H -31.241 V 36.438 H -1.889 V 29.932 H -31.241 V 6.594 L 0,6.594 Z" /></g><g
           transform="translate(2483.1084,128.2783)"
           id="g118"><path
             id="path120"
             style="fill:#4c5f68;fill-opacity:1;fill-rule:nonzero;stroke:none"
             d="m 0,0 h -9.396 l -38.702,53.227 h -0.387 c 0.516,-6.247 0.775,-11.973 0.775,-17.179 V 0 h -7.604 v 63.421 h 9.299 l 38.604,-53.01 h 0.388 c -0.065,0.78 -0.21,3.288 -0.437,7.525 -0.226,4.237 -0.307,7.267 -0.241,9.089 V 63.421 H 0 Z" /></g><g
           transform="translate(2581.0791,145.1523)"
           id="g122"><path
             id="path124"
             style="fill:#4c5f68;fill-opacity:1;fill-rule:nonzero;stroke:none"
             d="m 0,0 c 0,-5.581 -2.261,-9.934 -6.781,-13.057 -4.522,-3.124 -10.656,-4.685 -18.406,-4.685 -8.396,0 -14.854,0.969 -19.375,2.907 v 7.114 c 2.907,-1.099 6.071,-1.967 9.494,-2.603 3.422,-0.636 6.813,-0.954 10.172,-0.954 5.489,0 9.622,0.934 12.399,2.797 2.777,1.868 4.166,4.461 4.166,7.788 0,2.197 -0.494,3.996 -1.48,5.399 -0.984,1.402 -2.631,2.698 -4.94,3.884 -2.309,1.185 -5.818,2.53 -10.533,4.034 -6.587,2.111 -11.295,4.612 -14.117,7.505 -2.829,2.892 -4.241,6.666 -4.241,11.322 0,4.887 2.051,8.777 6.152,11.669 4.1,2.892 9.525,4.338 16.274,4.338 7.04,0 13.514,-1.157 19.423,-3.471 l -2.566,-6.42 c -5.845,2.199 -11.529,3.297 -17.05,3.297 -4.36,0 -7.766,-0.839 -10.22,-2.516 -2.454,-1.677 -3.682,-4.005 -3.682,-6.984 0,-2.198 0.453,-4 1.357,-5.402 0.904,-1.402 2.428,-2.69 4.575,-3.858 2.148,-1.174 5.435,-2.467 9.858,-3.884 7.427,-2.371 12.536,-4.916 15.33,-7.635 C -1.398,7.866 0,4.339 0,0" /></g><g
           transform="translate(1649.2666,578.1611)"
           id="g126"><path
             id="path128"
             style="fill:#62c3d7;fill-opacity:1;fill-rule:nonzero;stroke:none"
             d="m 0,0 c 16.038,0 29.038,13.001 29.038,29.039 0,16.037 -13,29.038 -29.038,29.038 -16.037,0 -29.038,-13.001 -29.038,-29.038 C -29.038,13.001 -16.037,0 0,0" /></g><g
           transform="translate(870.8931,372.957)"
           id="g130"><path
             id="path132"
             style="fill:#4c5f68;fill-opacity:1;fill-rule:nonzero;stroke:none"
             d="m 0,0 c 0,-8.637 3.037,-12.952 9.122,-12.952 1.943,0 4.437,0.548 7.478,1.64 5.594,2.069 9.002,3.103 10.219,3.103 2.795,0 4.985,-1.766 6.567,-5.291 l 5.655,-12.954 c 0.73,-1.824 1.095,-3.528 1.095,-5.108 0,-2.798 -2.313,-6.203 -6.933,-10.216 -9.244,-7.662 -21.346,-11.495 -36.306,-11.495 -27.246,0 -40.866,18.181 -40.866,54.549 v 260.166 c 0,3.284 0.97,6.08 2.919,8.391 1.944,2.31 4.256,3.466 6.933,3.466 h 24.446 c 2.796,0 5.109,-1.156 6.933,-3.466 C -0.914,267.522 0,264.726 0,261.442 Z" /></g><g
           transform="translate(967.8096,472.8457)"
           id="g134"><path
             id="path136"
             style="fill:#4c5f68;fill-opacity:1;fill-rule:nonzero;stroke:none"
             d="m 0,0 c -4.56,-6.752 -7.875,-14.414 -9.943,-22.988 -2.068,-8.576 -3.1,-17.272 -3.1,-26.091 0,-8.817 1.186,-17.272 3.557,-25.359 2.372,-8.089 5.929,-15.296 10.674,-21.62 10.459,-13.864 25.054,-20.797 43.786,-20.797 19.094,0 33.569,6.809 43.422,20.433 8.757,11.919 13.135,28.157 13.135,48.713 0,30.77 -10.096,51.995 -30.285,63.671 -7.42,4.257 -16.392,6.386 -26.91,6.386 -10.523,0 -19.404,-2.036 -26.638,-6.112 C 10.461,12.161 4.562,6.75 0,0 m -58.655,-46.433 c 0,15.81 2.645,30.315 7.938,43.514 5.29,13.195 12.556,24.475 21.8,33.843 19.341,19.581 43.725,29.372 73.16,29.372 32.961,0 58.502,-9.791 76.627,-29.372 17.514,-18.856 26.271,-44.761 26.271,-77.721 0,-31.868 -9.913,-57.897 -29.738,-78.087 -19.339,-19.824 -43.727,-29.738 -73.16,-29.738 -31.014,0 -55.949,10.156 -74.801,30.47 -18.731,19.822 -28.097,45.729 -28.097,77.719" /></g><g
           transform="translate(1281.0576,447.3936)"
           id="g138"><path
             id="path140"
             style="fill:#4c5f68;fill-opacity:1;fill-rule:nonzero;stroke:none"
             d="m 0,0 c -9.975,0 -14.96,4.926 -14.96,14.779 0,11.311 -3.466,19.947 -10.4,25.907 -5.96,5.227 -13.957,7.845 -23.991,7.845 -10.033,0 -18.335,-2.07 -24.902,-6.202 -6.569,-4.137 -11.923,-9.43 -16.055,-15.874 -8.028,-12.651 -12.043,-27.853 -12.043,-45.61 0,-33.205 10.095,-54.978 30.286,-65.315 7.298,-3.771 15.385,-5.657 24.265,-5.657 8.877,0 16.175,0.974 21.893,2.919 5.716,1.944 10.825,4.073 15.326,6.386 4.498,2.31 8.42,4.44 11.767,6.385 3.344,1.945 6.111,2.92 8.302,2.92 4.378,0 7.845,-2.007 10.398,-6.021 l 4.014,-6.75 c 1.826,-3.164 2.738,-6.234 2.738,-9.213 0,-2.981 -1.217,-6.084 -3.65,-9.305 -2.434,-3.224 -5.687,-6.174 -9.759,-8.849 -4.078,-2.677 -8.73,-5.108 -13.958,-7.298 -5.231,-2.189 -10.644,-4.075 -16.238,-5.654 -26.758,-7.176 -51.206,-6.081 -73.341,3.283 -24.814,10.459 -41.903,29.19 -51.267,56.193 -4.625,13.378 -6.933,28.338 -6.933,44.881 0,16.539 2.462,31.381 7.388,44.517 4.926,13.135 11.769,24.264 20.526,33.386 18.121,18.729 41.779,28.095 70.969,28.095 25.786,0 45.549,-6.75 59.294,-20.25 C 21.223,53.942 27.002,39.469 27.002,22.076 27.002,7.359 19.458,0 4.378,0 Z" /></g><g
           transform="translate(1379.0801,409.9028)"
           id="g142"><path
             id="path144"
             style="fill:#4c5f68;fill-opacity:1;fill-rule:nonzero;stroke:none"
             d="m 0,0 c -4.987,-3.713 -8.547,-7.391 -10.672,-11.039 -2.131,-3.649 -3.192,-7.935 -3.192,-12.861 0,-4.927 0.88,-9.305 2.644,-13.136 1.761,-3.831 4.226,-7.024 7.389,-9.579 6.686,-5.231 14.199,-7.844 22.531,-7.844 8.329,0 15.172,0.972 20.527,2.918 5.348,1.944 9.969,4.438 13.864,7.481 8.392,6.567 12.588,13.5 12.588,20.798 C 64.95,-14.14 59.901,-6.965 50.536,-1.733 42.146,3.129 32.229,5.564 20.8,5.564 11.918,5.564 4.985,3.709 0,0 m 122.236,-77.448 c 0,-6.449 -3.163,-9.669 -9.486,-9.669 H 95.053 c -4.743,0 -7.604,0.942 -8.574,2.828 -0.975,1.883 -1.523,3.585 -1.643,5.108 -0.122,1.52 -0.364,3.376 -0.729,5.564 -0.73,5.958 -1.764,12.408 -3.102,19.34 -9.488,-17.396 -24.387,-28.89 -44.698,-34.483 -7.177,-1.944 -15.084,-2.919 -23.719,-2.919 -8.637,0 -17.273,1.432 -25.907,4.288 -8.637,2.856 -16.299,7.085 -22.987,12.681 -15.084,12.647 -22.623,29.25 -22.623,49.805 0,22.502 8.271,39.711 24.812,51.632 13.62,9.607 31.135,14.414 52.543,14.414 21.407,0 39.528,-6.266 54.369,-18.793 0.365,4.134 0.548,9.305 0.548,15.509 0,6.203 -1.217,12.405 -3.65,18.608 -2.434,6.204 -5.901,11.373 -10.398,15.509 -9.245,8.147 -22.139,12.224 -38.679,12.224 -14.842,0 -29.921,-4.077 -45.245,-12.224 -2.919,-1.584 -5.474,-2.373 -7.664,-2.373 -3.283,0 -6.447,3.222 -9.486,9.671 -3.284,6.566 -4.926,11.31 -4.926,14.228 0,5.352 4.014,10.521 12.04,15.51 15.326,9.486 35.819,14.229 61.484,14.229 23.353,0 42.693,-6.384 58.017,-19.155 18.121,-15.326 27.184,-36.977 27.184,-64.951 0,-12.406 -2.007,-28.036 -6.02,-46.888 10.337,-29.435 15.75,-52.665 16.236,-69.693" /></g><g
           transform="translate(1571.3633,372.957)"
           id="g146"><path
             id="path148"
             style="fill:#4c5f68;fill-opacity:1;fill-rule:nonzero;stroke:none"
             d="m 0,0 c 0,-8.637 3.037,-12.952 9.122,-12.952 1.943,0 4.438,0.548 7.479,1.64 5.593,2.069 9.001,3.103 10.218,3.103 2.795,0 4.986,-1.766 6.567,-5.291 l 5.657,-12.954 c 0.728,-1.824 1.093,-3.528 1.093,-5.108 0,-2.798 -2.31,-6.203 -6.933,-10.216 -9.244,-7.662 -21.346,-11.495 -36.306,-11.495 -27.246,0 -40.866,18.181 -40.866,54.549 v 260.166 c 0,3.284 0.971,6.08 2.919,8.391 1.944,2.31 4.256,3.466 6.933,3.466 h 24.446 c 2.797,0 5.109,-1.156 6.933,-3.466 C -0.914,267.522 0,264.726 0,261.442 Z" /></g><g
           transform="translate(1669.0176,372.957)"
           id="g150"><path
             id="path152"
             style="fill:#4c5f68;fill-opacity:1;fill-rule:nonzero;stroke:none"
             d="m 0,0 c 0,-8.637 2.855,-12.952 8.573,-12.952 1.945,0 4.135,0.548 6.57,1.64 4.743,2.069 7.962,3.103 9.669,3.103 2.554,0 4.621,-1.766 6.203,-5.291 l 5.654,-12.771 c 0.974,-2.071 1.46,-4.014 1.46,-5.838 0,-5.232 -4.501,-10.097 -13.5,-14.596 -8.516,-4.378 -16.94,-6.568 -25.27,-6.568 -8.332,0 -14.991,0.912 -19.976,2.737 -4.989,1.824 -9.245,4.863 -12.772,9.122 -7.055,8.757 -10.581,22.988 -10.581,42.69 v 142.306 c 0,3.406 0.971,6.264 2.919,8.576 1.945,2.309 4.257,3.467 6.934,3.467 h 24.448 c 2.794,0 5.107,-1.158 6.931,-3.467 C -0.912,149.846 0,146.988 0,143.582 Z" /></g><g
           transform="translate(1959.5156,351.9365)"
           id="g154"><path
             id="path156"
             style="fill:#4c5f68;fill-opacity:1;fill-rule:nonzero;stroke:none"
             d="m 0,0 c 7.868,0 15.077,1.9 21.639,5.723 6.549,3.811 12.216,8.942 16.989,15.38 10.015,13.826 15.022,29.921 15.022,48.285 0,19.789 -5.611,36.002 -16.81,48.643 -10.731,12.161 -23.551,18.241 -38.45,18.241 -14.787,0 -26.356,-6.795 -34.694,-20.387 -7.511,-12.16 -11.266,-27.663 -11.266,-46.497 0,-19.314 3.867,-35.297 11.624,-47.928 C -27.25,7.153 -15.269,0 0,0 m 82.621,169.178 c 7.512,0 11.267,-4.65 11.267,-13.949 v -276.836 c 0,-3.097 -0.894,-5.846 -2.683,-8.227 -1.788,-2.381 -4.057,-3.577 -6.795,-3.577 H 59.552 c -2.75,0 -5.041,1.196 -6.885,3.577 -1.855,2.381 -2.772,5.13 -2.772,8.227 v 75.11 c 0,9.657 0.648,24.97 1.966,45.961 -9.545,-17.168 -23.907,-28.435 -43.098,-33.8 -6.439,-1.788 -14.732,-2.683 -24.859,-2.683 -10.137,0 -20.298,2.895 -30.491,8.674 -10.193,5.779 -18.755,13.558 -25.663,23.338 -14.194,19.783 -21.281,44.944 -21.281,75.468 0,28.849 8.405,53.293 25.216,73.323 16.687,19.906 36.359,29.865 59.015,29.865 14.777,0 27.273,-2.923 37.466,-8.763 10.193,-5.845 19.046,-14.547 26.557,-26.11 l 4.293,17.168 1.609,5.902 c 0.95,3.336 2.414,5.393 4.381,6.17 1.968,0.771 4.136,1.162 6.527,1.162 z" /></g><g
           transform="translate(2275.7305,329)"
           id="g158"><path
             id="path160"
             style="fill:#4c5f68;fill-opacity:1;fill-rule:nonzero;stroke:none"
             d="m 0,0 c 0,-8.114 -3.688,-12.16 -11.087,-12.16 h -8.048 c -7.153,0 -11.87,2.861 -14.128,8.584 -2.504,6.55 -5.186,15.67 -8.048,27.361 -5.006,-12.518 -13.502,-22.388 -25.484,-29.597 -11.981,-7.209 -26.914,-10.819 -44.798,-10.819 -23.36,0 -40.595,7.298 -51.672,21.907 -11.088,14.597 -16.631,36.147 -16.631,64.649 v 107.837 c 0,3.337 1.04,6.136 3.129,8.405 2.08,2.264 5.03,3.398 8.853,3.398 h 19.66 c 7.869,0 11.804,-3.934 11.804,-11.803 V 71.892 c 0,-28.501 6.616,-44.955 19.85,-49.359 4.292,-1.43 9.389,-2.145 15.29,-2.145 5.902,0 11.982,1.363 18.242,4.113 6.258,2.738 11.892,6.371 16.899,10.909 11.2,10.372 16.811,22.232 16.811,35.588 v 106.764 c 0,3.337 1.005,6.136 3.041,8.405 2.034,2.264 5.253,3.398 9.656,3.398 h 18.778 c 4.18,0 7.221,-1.134 9.12,-3.398 1.901,-2.269 2.862,-5.068 2.862,-8.405 V 65.99 c 0,-25.159 1.789,-45.424 5.365,-60.803 C -0.179,3.868 0,2.146 0,0" /></g><g
           transform="translate(2358.7686,365.3037)"
           id="g162"><path
             id="path164"
             style="fill:#62c3d7;fill-opacity:1;fill-rule:nonzero;stroke:none"
             d="m 0,0 c 0,-8.472 2.795,-12.697 8.405,-12.697 1.901,0 4.047,0.537 6.439,1.609 4.649,2.024 7.802,3.04 9.478,3.04 2.503,0 4.527,-1.732 6.08,-5.185 l 5.544,-12.519 c 0.95,-2.034 1.431,-3.935 1.431,-5.723 0,-5.13 -4.415,-9.903 -13.233,-14.306 -8.35,-4.292 -16.61,-6.439 -24.77,-6.439 -8.17,0 -14.697,0.895 -19.582,2.683 -4.896,1.788 -9.064,4.762 -12.519,8.941 -6.919,8.584 -10.372,22.534 -10.372,41.848 v 139.491 c 0,3.337 0.951,6.136 2.862,8.405 1.899,2.264 4.169,3.398 6.796,3.398 h 23.963 c 2.739,0 5.007,-1.134 6.795,-3.398 C -0.894,146.879 0,144.08 0,140.743 Z" /></g><g
           transform="translate(2472.918,349.6562)"
           id="g166"><path
             id="path168"
             style="fill:#62c3d7;fill-opacity:1;fill-rule:nonzero;stroke:none"
             d="m 0,0 21.64,1.788 h 65.81 c 2.739,0 5.098,-0.872 7.065,-2.594 1.966,-1.732 2.951,-3.844 2.951,-6.348 V -20.03 c 0,-6.203 -1.018,-10.015 -3.041,-11.446 -3.107,-2.391 -8.047,-3.576 -14.843,-3.576 H -37.555 c -7.634,0 -12.943,3.689 -15.917,11.088 -1.072,2.503 -1.609,5.477 -1.609,8.942 0,5.242 3.398,12.808 10.193,22.711 l 70.461,101.221 14.665,19.672 c 0.715,0.833 1.074,1.548 1.074,2.146 0,0.592 -0.784,0.894 -2.326,0.894 l -26.11,-1.788 h -50.968 c -5.722,0 -9.422,0.833 -11.088,2.503 -2.861,2.862 -4.292,7.512 -4.292,13.95 v 11.624 c 0,2.381 0.951,4.437 2.862,6.17 1.9,1.727 4.225,2.593 6.974,2.593 H 77.973 c 4.883,0 8.405,-1.431 10.55,-4.292 3.578,-4.415 5.366,-8.674 5.366,-12.787 0,-4.113 -0.425,-7.422 -1.252,-9.925 -0.838,-2.504 -1.856,-4.829 -3.04,-6.975 -1.197,-2.146 -2.504,-4.174 -3.935,-6.08 -1.431,-1.911 -2.683,-3.7 -3.755,-5.365 L 16.274,22.175 -0.536,2.503 C -1.017,1.899 -1.252,1.341 -1.252,0.805 -1.252,0.268 -0.838,0 0,0" /></g><g
           transform="translate(2338.5107,578.1611)"
           id="g170"><path
             id="path172"
             style="fill:#62c3d7;fill-opacity:1;fill-rule:nonzero;stroke:none"
             d="M 0,0 C 16.037,0 29.038,13.001 29.038,29.039 29.038,45.076 16.037,58.077 0,58.077 -16.037,58.077 -29.038,45.076 -29.038,29.039 -29.038,13.001 -16.037,0 0,0" /></g><g
           transform="translate(1777.1377,386.4287)"
           id="g174"><path
             id="path176"
             style="fill:#4c5f68;fill-opacity:1;fill-rule:nonzero;stroke:none"
             d="M 0,0 C 16.037,0 29.038,13 29.038,29.038 29.038,45.076 16.037,58.077 0,58.077 -16.037,58.077 -29.038,45.076 -29.038,29.038 -29.038,13 -16.037,0 0,0" /></g></g></g></g></svg>