<?xml version="1.0" encoding="UTF-8" standalone="no"?>
<svg
   xmlns:dc="http://purl.org/dc/elements/1.1/"
   xmlns:cc="http://creativecommons.org/ns#"
   xmlns:rdf="http://www.w3.org/1999/02/22-rdf-syntax-ns#"
   xmlns:svg="http://www.w3.org/2000/svg"
   xmlns="http://www.w3.org/2000/svg"
   viewBox="0 0 960 576"
   height="576"
   width="960"
   xml:space="preserve"
   id="svg2"
   version="1.1"><metadata
     id="metadata8"><rdf:RDF><cc:Work
         rdf:about=""><dc:format>image/svg+xml</dc:format><dc:type
           rdf:resource="http://purl.org/dc/dcmitype/StillImage" /></cc:Work></rdf:RDF></metadata><defs
     id="defs6"><clipPath
       id="clipPath18"
       clipPathUnits="userSpaceOnUse"><path
         id="path16"
         d="M 0,432 H 720 V 0 H 0 Z" /></clipPath></defs><g
     transform="matrix(1.3333333,0,0,-1.3333333,0,576)"
     id="g10"><g
       id="g12"><g
         clip-path="url(#clipPath18)"
         id="g14"><g
           transform="translate(642.0625)"
           id="g20"><path
             id="path22"
             style="fill:#1e1d1e;fill-opacity:1;fill-rule:evenodd;stroke:none"
             d="m 0,0 h -564.125 c -43.043,0 -77.937,34.894 -77.937,77.938 v 276.124 c 0,43.044 34.894,77.938 77.937,77.938 H 0 c 43.044,0 77.938,-34.894 77.938,-77.938 V 77.938 C 77.938,34.894 43.044,0 0,0" /></g><g
           transform="translate(117.9678,204.0156)"
           id="g24"><path
             id="path26"
             style="fill:#67cdd9;fill-opacity:1;fill-rule:nonzero;stroke:none"
             d="m 0,0 c 0,-3.543 1.266,-5.314 3.797,-5.314 0.81,0 1.849,0.224 3.115,0.673 2.33,0.848 3.748,1.272 4.254,1.272 1.166,0 2.078,-0.723 2.734,-2.169 l 2.356,-5.316 c 0.305,-0.749 0.456,-1.446 0.456,-2.095 0,-1.148 -0.962,-2.544 -2.887,-4.192 -3.848,-3.144 -8.888,-4.715 -15.117,-4.715 -11.345,0 -17.017,7.46 -17.017,22.38 v 106.734 c 0,1.347 0.405,2.495 1.215,3.443 0.811,0.948 1.773,1.422 2.887,1.422 h 10.18 c 1.165,0 2.127,-0.474 2.886,-1.422 C -0.381,109.753 0,108.605 0,107.258 Z" /></g><g
           transform="translate(156.6416,245.1963)"
           id="g28"><path
             id="path30"
             style="fill:#67cdd9;fill-opacity:1;fill-rule:nonzero;stroke:none"
             d="m 0,0 c -1.873,-2.773 -3.234,-5.92 -4.084,-9.441 -0.85,-3.522 -1.274,-7.094 -1.274,-10.717 0,-3.621 0.487,-7.094 1.462,-10.414 0.974,-3.323 2.435,-6.283 4.384,-8.88 4.296,-5.695 10.291,-8.541 17.986,-8.541 7.844,0 13.79,2.796 17.838,8.39 3.596,4.897 5.395,11.566 5.395,20.007 0,12.64 -4.146,21.356 -12.441,26.153 C 26.219,8.305 22.533,9.179 18.212,9.179 13.891,9.179 10.243,8.343 7.27,6.669 4.297,4.994 1.873,2.771 0,0 m -24.095,-19.07 c 0,6.494 1.087,12.451 3.26,17.871 2.173,5.42 5.159,10.053 8.956,13.899 7.945,8.043 17.963,12.065 30.053,12.065 13.541,0 24.033,-4.022 31.477,-12.065 7.196,-7.742 10.792,-18.383 10.792,-31.921 0,-13.088 -4.072,-23.778 -12.215,-32.071 -7.945,-8.141 -17.962,-12.213 -30.054,-12.213 -12.74,0 -22.983,4.171 -30.727,12.514 -7.695,8.142 -11.542,18.783 -11.542,31.921" /></g><g
           transform="translate(286.3057,235.0771)"
           id="g32"><path
             id="path34"
             style="fill:#67cdd9;fill-opacity:1;fill-rule:nonzero;stroke:none"
             d="m 0,0 c -4.119,0 -6.18,2.017 -6.18,6.05 0,4.63 -1.429,8.164 -4.295,10.603 -2.461,2.142 -5.763,3.212 -9.91,3.212 -4.142,0 -7.572,-0.846 -10.285,-2.539 -2.713,-1.693 -4.924,-3.859 -6.631,-6.498 -3.316,-5.178 -4.972,-11.4 -4.972,-18.669 0,-13.593 4.168,-22.504 12.507,-26.736 3.014,-1.543 6.356,-2.315 10.024,-2.315 3.666,0 6.681,0.4 9.043,1.195 2.359,0.798 4.47,1.667 6.328,2.614 1.859,0.946 3.478,1.817 4.859,2.614 1.383,0.796 2.526,1.196 3.43,1.196 1.809,0 3.24,-0.823 4.295,-2.465 l 1.658,-2.764 c 0.754,-1.295 1.131,-2.553 1.131,-3.77 0,-1.221 -0.502,-2.491 -1.508,-3.81 -1.004,-1.318 -2.348,-2.526 -4.031,-3.622 -1.682,-1.095 -3.604,-2.092 -5.764,-2.987 -2.16,-0.897 -4.396,-1.668 -6.707,-2.315 -11.053,-2.938 -21.15,-2.489 -30.293,1.344 -10.248,4.281 -17.306,11.948 -21.176,23.002 -1.908,5.476 -2.863,11.599 -2.863,18.371 0,6.77 1.018,12.844 3.053,18.221 2.033,5.378 4.859,9.933 8.476,13.667 7.487,7.667 17.258,11.501 29.315,11.501 10.648,0 18.812,-2.763 24.49,-8.29 C 8.766,22.08 11.152,16.156 11.152,9.036 11.152,3.012 8.037,0 1.809,0 Z" /></g><g
           transform="translate(326.1318,219.7539)"
           id="g36"><path
             id="path38"
             style="fill:#67cdd9;fill-opacity:1;fill-rule:nonzero;stroke:none"
             d="m 0,0 c -2.07,-1.521 -3.547,-3.029 -4.432,-4.527 -0.882,-1.495 -1.324,-3.254 -1.324,-5.274 0,-2.019 0.367,-3.815 1.098,-5.387 0.732,-1.571 1.756,-2.879 3.068,-3.928 2.777,-2.146 5.895,-3.216 9.354,-3.216 3.461,0 6.3,0.397 8.523,1.195 2.221,0.8 4.141,1.822 5.756,3.07 3.484,2.693 5.227,5.535 5.227,8.529 -0.303,3.74 -2.399,6.684 -6.288,8.828 C 17.498,1.284 13.383,2.282 8.637,2.282 4.949,2.282 2.07,1.521 0,0 m 50.751,-31.758 c 0,-2.645 -1.313,-3.967 -3.938,-3.967 h -7.347 c -1.971,0 -3.156,0.388 -3.561,1.161 -0.402,0.773 -0.631,1.47 -0.681,2.094 -0.051,0.623 -0.151,1.384 -0.303,2.283 -0.304,2.444 -0.732,5.086 -1.288,7.928 -3.94,-7.132 -10.125,-11.845 -18.559,-14.14 -2.978,-0.796 -6.261,-1.196 -9.845,-1.196 -3.586,0 -7.172,0.585 -10.758,1.759 -3.584,1.172 -6.766,2.905 -9.543,5.2 -6.262,5.187 -9.395,11.994 -9.395,20.424 0,9.227 3.436,16.284 10.303,21.174 5.656,3.939 12.928,5.908 21.814,5.908 8.889,0 16.412,-2.568 22.575,-7.705 0.15,1.695 0.226,3.816 0.226,6.359 0,2.544 -0.504,5.088 -1.514,7.631 -1.011,2.544 -2.451,4.663 -4.318,6.36 -3.838,3.341 -9.191,5.013 -16.058,5.013 -6.163,0 -12.424,-1.672 -18.788,-5.013 -1.211,-0.649 -2.271,-0.973 -3.179,-0.973 -1.364,0 -2.678,1.322 -3.94,3.966 -1.363,2.692 -2.045,4.638 -2.045,5.835 0,2.195 1.666,4.315 5,6.359 6.362,3.891 14.871,5.836 25.528,5.836 9.695,0 17.722,-2.619 24.087,-7.856 7.523,-6.284 11.287,-15.161 11.287,-26.634 0,-5.086 -0.832,-11.496 -2.5,-19.228 4.293,-12.07 6.539,-21.596 6.74,-28.578" /></g><g
           transform="translate(405.4199,204.1631)"
           id="g40"><path
             id="path42"
             style="fill:#67cdd9;fill-opacity:1;fill-rule:nonzero;stroke:none"
             d="m 0,0 c 0,-3.567 1.291,-5.351 3.875,-5.351 0.826,0 1.885,0.227 3.178,0.679 2.375,0.854 3.822,1.28 4.34,1.28 1.187,0 2.119,-0.728 2.789,-2.184 l 2.402,-5.351 c 0.311,-0.754 0.465,-1.456 0.465,-2.11 0,-1.154 -0.983,-2.56 -2.945,-4.22 -3.926,-3.166 -9.067,-4.747 -15.422,-4.747 -11.573,0 -17.358,7.511 -17.358,22.531 V 107.98 c 0,1.356 0.412,2.512 1.24,3.466 0.827,0.955 1.807,1.432 2.946,1.432 h 10.383 c 1.187,0 2.17,-0.477 2.945,-1.432 C -0.387,110.492 0,109.336 0,107.98 Z" /></g><g
           transform="translate(512.1426,257.1011)"
           id="g44"><path
             id="path46"
             style="fill:#67cdd9;fill-opacity:1;fill-rule:nonzero;stroke:none"
             d="m 0,0 c 0,-2.817 -1.59,-4.227 -4.77,-4.227 h -21.337 v -47.395 c 0,-5.131 2.548,-7.697 7.642,-7.697 3.231,0 7.444,1.61 12.639,4.829 1.01,0.656 2.103,0.983 3.289,0.983 1.183,0 2.133,-0.83 2.84,-2.492 l 1.74,-3.923 c 0.654,-1.51 0.982,-2.793 0.982,-3.849 0,-1.058 -0.796,-2.277 -2.384,-3.661 -1.59,-1.384 -3.618,-2.628 -6.09,-3.735 -5.598,-2.517 -10.668,-3.775 -15.209,-3.775 -4.541,0 -8.137,0.466 -10.785,1.396 -2.647,0.932 -4.905,2.328 -6.77,4.19 -4.039,3.923 -6.057,9.584 -6.057,16.981 v 48.148 h -6.355 c -3.178,0 -4.766,1.435 -4.766,4.302 v 4.301 c 0,1.158 0.303,2.063 0.907,2.718 0.605,0.655 1.791,1.157 3.556,1.51 l 7.569,2.188 2.875,17.736 c 0.554,3.32 1.916,4.98 4.086,4.98 h 6.279 c 1.16,0 2.119,-0.466 2.877,-1.396 0.758,-0.93 1.135,-2.126 1.135,-3.584 V 11.471 H -4.77 C -1.59,11.471 0,10.087 0,7.32 Z" /></g><g
           transform="translate(579.834,198.5312)"
           id="g48"><path
             id="path50"
             style="fill:#67cdd9;fill-opacity:1;fill-rule:nonzero;stroke:none"
             d="m 0,0 9.137,0.747 h 27.787 c 1.16,0 2.152,-0.361 2.984,-1.085 0.83,-0.724 1.244,-1.607 1.244,-2.657 v -5.389 c 0,-2.593 -0.425,-4.188 -1.283,-4.789 -1.308,-0.996 -3.396,-1.496 -6.267,-1.496 h -49.459 c -3.221,0 -5.461,1.545 -6.719,4.64 -0.453,1.049 -0.68,2.295 -0.68,3.742 0,2.194 1.434,5.363 4.303,9.505 l 29.752,42.356 6.193,8.233 c 0.301,0.348 0.451,0.649 0.451,0.898 0,0.249 -0.328,0.374 -0.982,0.374 L 5.437,54.33 h -21.519 c -2.416,0 -3.977,0.35 -4.682,1.048 -1.209,1.197 -1.812,3.143 -1.812,5.838 v 4.864 c 0,0.998 0.4,1.858 1.207,2.582 0.805,0.723 1.787,1.085 2.945,1.085 h 51.348 c 2.062,0 3.549,-0.599 4.453,-1.796 1.51,-1.846 2.266,-3.63 2.266,-5.35 0,-1.723 -0.176,-3.107 -0.528,-4.154 C 38.762,57.399 38.336,56.426 37.83,55.528 37.328,54.63 36.775,53.782 36.17,52.983 35.564,52.185 35.037,51.437 34.582,50.737 L 6.871,9.279 -0.225,1.047 C -0.428,0.798 -0.527,0.561 -0.527,0.335 -0.527,0.111 -0.354,0 0,0" /></g><g
           transform="translate(167.8594,139.5303)"
           id="g52"><path
             id="path54"
             style="fill:#efdde0;fill-opacity:1;fill-rule:nonzero;stroke:none"
             d="m 0,0 h 6.219 c 1.685,0 3.142,0.611 4.373,1.835 1.23,1.224 1.846,2.674 1.846,4.351 v 6.186 c 0,1.676 -0.616,3.116 -1.846,4.321 C 9.361,17.897 7.904,18.5 6.219,18.5 H 0 Z m -12.313,-30.875 v 55.562 h 24.751 c 3.371,0 6.266,-1.214 8.684,-3.642 2.418,-2.428 3.628,-5.318 3.628,-8.672 V 9.021 c 0,-2.756 -0.944,-5.412 -2.833,-7.964 -1.889,-2.554 -5.048,-3.83 -9.479,-3.83 h 6.126 c 1.696,0 3.151,-0.609 4.365,-1.826 1.214,-1.216 1.821,-2.675 1.821,-4.375 V -30.875 H 12.438 v 18.548 c 0,1.7 -0.616,3.159 -1.846,4.376 -1.231,1.217 -2.688,1.826 -4.373,1.826 H 0 v -24.75 z" /></g><g
           transform="translate(229.6689,127.1553)"
           id="g56"><path
             id="path58"
             style="fill:#efdde0;fill-opacity:1;fill-rule:nonzero;stroke:none"
             d="m 0,0 h -6.193 c -1.698,0 -3.155,-0.604 -4.37,-1.81 -1.216,-1.206 -1.824,-2.648 -1.824,-4.326 v -0.057 c 0,-1.661 0.604,-3.098 1.809,-4.313 1.205,-1.216 2.668,-1.823 4.385,-1.823 1.716,0 3.177,0.607 4.384,1.823 C -0.604,-9.291 0,-7.854 0,-6.193 Z m 0,6.187 v 6.188 c 0,1.695 -0.613,3.15 -1.838,4.365 -1.225,1.215 -2.678,1.822 -4.355,1.822 h -6.194 c -3.646,0 -5.691,-2.062 -6.134,-6.187 h -6.194 c 0.945,8.25 5.055,12.375 12.328,12.375 H 0 c 3.371,0 6.268,-1.221 8.686,-3.662 2.418,-2.442 3.627,-5.352 3.627,-8.729 V -18.5 H 0 v 6.193 C -0.482,-16.436 -2.547,-18.5 -6.193,-18.5 h -6.194 c -3.377,0 -6.275,1.209 -8.697,3.628 -2.422,2.418 -3.631,5.313 -3.631,8.686 v 0.059 c 0,3.372 1.215,6.268 3.647,8.687 2.429,2.418 5.324,3.627 8.681,3.627 z" /></g><g
           transform="translate(279.042,145.7178)"
           id="g60"><path
             id="path62"
             style="fill:#efdde0;fill-opacity:1;fill-rule:nonzero;stroke:none"
             d="m 0,0 h -6.219 c -1.705,0 -3.168,-0.608 -4.388,-1.823 -1.221,-1.216 -1.831,-2.673 -1.831,-4.37 v -18.522 c 0,-1.66 0.606,-3.097 1.817,-4.312 1.211,-1.216 2.678,-1.824 4.402,-1.824 1.724,0 3.192,0.608 4.403,1.824 1.211,1.215 1.816,2.652 1.816,4.312 z M 12.313,-37.063 H 0 v 6.194 c -0.484,-4.129 -2.558,-6.194 -6.219,-6.194 h -6.219 c -3.372,0 -6.267,1.211 -8.685,3.633 -2.418,2.422 -3.627,5.323 -3.627,8.7 v 18.527 c 0,3.416 1.214,6.335 3.642,8.757 2.427,2.422 5.317,3.633 8.67,3.633 H 0 V 18.5 h 12.313 z" /></g><path
           id="path64"
           style="fill:#efdde0;fill-opacity:1;fill-rule:nonzero;stroke:none"
           d="m 303.665,151.893 h 12.313 v -43.237 h -12.313 z m 0,12.325 h 12.313 v -6.187 h -12.313 z" /><g
           transform="translate(340.6924,139.5059)"
           id="g66"><path
             id="path68"
             style="fill:#efdde0;fill-opacity:1;fill-rule:nonzero;stroke:none"
             d="m 0,0 v -18.521 c 0,-1.661 0.605,-3.098 1.816,-4.313 1.211,-1.216 2.678,-1.823 4.403,-1.823 1.723,0 3.191,0.607 4.402,1.823 1.211,1.215 1.817,2.652 1.817,4.313 V 0 c 0,1.697 -0.616,3.154 -1.846,4.37 C 9.361,5.585 7.904,6.193 6.219,6.193 4.514,6.193 3.051,5.585 1.83,4.37 0.609,3.154 0,1.697 0,0 m 0,12.399 h 12.438 c 3.371,0 6.266,-1.22 8.684,-3.662 2.418,-2.441 3.627,-5.351 3.627,-8.728 v -18.528 c 0,-3.338 -1.209,-6.228 -3.627,-8.669 -2.418,-2.442 -5.313,-3.663 -8.684,-3.663 H 0 c -3.372,0 -6.268,1.211 -8.686,3.633 -2.418,2.422 -3.627,5.322 -3.627,8.699 V 0.009 c 0,3.416 1.214,6.335 3.642,8.757 2.428,2.422 5.317,3.633 8.671,3.633" /></g><g
           transform="translate(442.3984,298.8706)"
           id="g70"><path
             id="path72"
             style="fill:#5bbdcd;fill-opacity:1;fill-rule:evenodd;stroke:none"
             d="M 0,0 C 2.21,2.21 -0.23,5.463 -2.399,5.28 -8.5,4.766 -3.776,-3.776 0,0 M -4.319,14.88 C 7.673,16.763 14.599,3.502 8.16,-5.52 6.556,-7.769 2.854,-10.587 0.24,-13.2 c -0.801,-0.8 -2.064,-2.626 -2.399,-2.64 -0.98,-0.042 -4.052,4.052 -5.521,5.52 -3.465,3.466 -6.726,5.378 -7.439,10.56 -1.112,8.078 3.974,13.569 10.8,14.64" /></g><g
           transform="translate(533.5986,284.9507)"
           id="g74"><path
             id="path76"
             style="fill:#5bbdcd;fill-opacity:1;fill-rule:evenodd;stroke:none"
             d="M 0,0 C 4.823,-1.305 5.62,6.434 0.96,6 -2.821,5.648 -2.568,0.695 0,0 M 1.2,-14.88 C -2.72,-11.92 -5.631,-7.952 -9.359,-4.8 -15.056,3.748 -9.737,14.642 -0.72,15.84 5.728,16.697 11.677,12.24 13.44,7.2 17.128,-3.335 5.964,-9.385 1.2,-14.88" /></g><path
           id="path78"
           style="fill:#63cbf4;fill-opacity:1;fill-rule:nonzero;stroke:none"
           d="m 425.92,170.958 h -18.251 v 4.249 h 18.251 z" /><path
           id="path80"
           style="fill:#a7e0cb;fill-opacity:1;fill-rule:nonzero;stroke:none"
           d="m 425.92,165.114 h -18.251 v 4.25 h 18.251 z" /><path
           id="path82"
           style="fill:#a7e0cb;fill-opacity:1;fill-rule:nonzero;stroke:none"
           d="m 425.92,158.353 h -18.251 v 4.25 h 18.251 z" /><path
           id="path84"
           style="fill:#a7e0cb;fill-opacity:1;fill-rule:nonzero;stroke:none"
           d="m 425.92,151.157 h -18.251 v 4.25 h 18.251 z" /><path
           id="path86"
           style="fill:#89d9ed;fill-opacity:1;fill-rule:nonzero;stroke:none"
           d="m 449.403,274.305 h -18.251 v 4.249 h 18.251 z" /><path
           id="path88"
           style="fill:#89d9ed;fill-opacity:1;fill-rule:nonzero;stroke:none"
           d="m 449.403,268.104 h -18.251 v 4.249 h 18.251 z" /><path
           id="path90"
           style="fill:#89d9ed;fill-opacity:1;fill-rule:nonzero;stroke:none"
           d="m 449.403,261.317 h -18.251 v 4.249 h 18.251 z" /><path
           id="path92"
           style="fill:#89d9ed;fill-opacity:1;fill-rule:nonzero;stroke:none"
           d="m 449.403,254.53 h -18.251 v 4.249 h 18.251 z" /><path
           id="path94"
           style="fill:#89d9ed;fill-opacity:1;fill-rule:nonzero;stroke:none"
           d="m 449.403,247.487 h -18.251 v 4.25 h 18.251 z" /><path
           id="path96"
           style="fill:#89d9ed;fill-opacity:1;fill-rule:nonzero;stroke:none"
           d="m 449.403,240.241 h -18.251 v 4.25 h 18.251 z" /><path
           id="path98"
           style="fill:#89d9ed;fill-opacity:1;fill-rule:nonzero;stroke:none"
           d="m 449.403,233.506 h -18.251 v 4.249 h 18.251 z" /><path
           id="path100"
           style="fill:#89d9ed;fill-opacity:1;fill-rule:nonzero;stroke:none"
           d="m 449.403,226.54 h -18.251 v 4.249 h 18.251 z" /><path
           id="path102"
           style="fill:#89d9ed;fill-opacity:1;fill-rule:nonzero;stroke:none"
           d="m 449.403,219.651 h -18.251 v 4.248 h 18.251 z" /><path
           id="path104"
           style="fill:#89d9ed;fill-opacity:1;fill-rule:nonzero;stroke:none"
           d="m 449.403,212.456 h -18.251 v 4.248 h 18.251 z" /><path
           id="path106"
           style="fill:#89d9ed;fill-opacity:1;fill-rule:nonzero;stroke:none"
           d="m 449.403,205.72 h -18.251 v 4.249 h 18.251 z" /><path
           id="path108"
           style="fill:#89d9ed;fill-opacity:1;fill-rule:nonzero;stroke:none"
           d="m 449.403,198.626 h -18.251 v 4.25 h 18.251 z" /><path
           id="path110"
           style="fill:#89d9ed;fill-opacity:1;fill-rule:nonzero;stroke:none"
           d="m 449.403,191.712 h -18.251 v 4.249 h 18.251 z" /><path
           id="path112"
           style="fill:#89d9ed;fill-opacity:1;fill-rule:nonzero;stroke:none"
           d="m 449.403,184.798 h -18.251 v 4.248 h 18.251 z" /><path
           id="path114"
           style="fill:#89d9ed;fill-opacity:1;fill-rule:nonzero;stroke:none"
           d="m 449.403,177.831 h -18.251 v 4.25 h 18.251 z" /><path
           id="path116"
           style="fill:#63cbf4;fill-opacity:1;fill-rule:nonzero;stroke:none"
           d="m 449.434,170.993 h -18.251 v 4.248 h 18.251 z" /><path
           id="path118"
           style="fill:#63cbf4;fill-opacity:1;fill-rule:nonzero;stroke:none"
           d="m 449.434,165.149 h -18.251 v 4.249 h 18.251 z" /><path
           id="path120"
           style="fill:#8cdaf0;fill-opacity:1;fill-rule:nonzero;stroke:none"
           d="m 449.434,158.388 h -18.251 v 4.249 h 18.251 z" /><path
           id="path122"
           style="fill:#a7e0cb;fill-opacity:1;fill-rule:nonzero;stroke:none"
           d="m 449.434,151.192 h -18.251 v 4.249 h 18.251 z" /><path
           id="path124"
           style="fill:#a7e0cb;fill-opacity:1;fill-rule:nonzero;stroke:none"
           d="m 449.434,144.431 h -18.251 v 4.249 h 18.251 z" /><path
           id="path126"
           style="fill:#a7e0cb;fill-opacity:1;fill-rule:nonzero;stroke:none"
           d="m 449.434,137.414 h -18.251 v 4.249 h 18.251 z" /><path
           id="path128"
           style="fill:#3a857d;fill-opacity:1;fill-rule:nonzero;stroke:none"
           d="m 568.168,170.993 h -18.251 v 4.25 h 18.251 z" /><path
           id="path130"
           style="fill:#99dbbb;fill-opacity:1;fill-rule:nonzero;stroke:none"
           d="m 568.168,165.15 h -18.251 v 4.249 h 18.251 z" /><path
           id="path132"
           style="fill:#63cbf4;fill-opacity:1;fill-rule:nonzero;stroke:none"
           d="m 496.94,170.942 h -18.251 v 4.248 h 18.251 z" /><path
           id="path134"
           style="fill:#b5e5ce;fill-opacity:1;fill-rule:nonzero;stroke:none"
           d="m 496.94,165.099 h -18.251 v 4.249 h 18.251 z" /><path
           id="path136"
           style="fill:#284148;fill-opacity:1;fill-rule:nonzero;stroke:none"
           d="m 615.533,170.942 h -18.251 v 4.248 h 18.251 z" /><path
           id="path138"
           style="fill:#284148;fill-opacity:1;fill-rule:nonzero;stroke:none"
           d="m 615.533,165.099 h -18.251 v 4.249 h 18.251 z" /><path
           id="path140"
           style="fill:#284148;fill-opacity:1;fill-rule:nonzero;stroke:none"
           d="m 591.824,170.942 h -18.251 v 4.248 h 18.251 z" /><path
           id="path142"
           style="fill:#3a857d;fill-opacity:1;fill-rule:nonzero;stroke:none"
           d="m 591.824,165.099 h -18.251 v 4.249 h 18.251 z" /><path
           id="path144"
           style="fill:#3a857d;fill-opacity:1;fill-rule:nonzero;stroke:none"
           d="m 591.824,158.337 h -18.251 v 4.249 h 18.251 z" /><path
           id="path146"
           style="fill:#3a857d;fill-opacity:1;fill-rule:nonzero;stroke:none"
           d="m 591.824,151.142 h -18.251 v 4.249 h 18.251 z" /><path
           id="path148"
           style="fill:#3a857d;fill-opacity:1;fill-rule:nonzero;stroke:none"
           d="m 591.824,144.38 h -18.251 v 4.249 h 18.251 z" /><path
           id="path150"
           style="fill:#3a857d;fill-opacity:1;fill-rule:nonzero;stroke:none"
           d="m 591.824,137.363 h -18.251 v 4.249 h 18.251 z" /><path
           id="path152"
           style="fill:#63cbf4;fill-opacity:1;fill-rule:nonzero;stroke:none"
           d="m 520.507,170.947 h -18.251 v 4.249 h 18.251 z" /><path
           id="path154"
           style="fill:#68cccb;fill-opacity:1;fill-rule:nonzero;stroke:none"
           d="m 520.507,165.104 h -18.251 v 4.248 h 18.251 z" /><path
           id="path156"
           style="fill:#7ed4d1;fill-opacity:1;fill-rule:nonzero;stroke:none"
           d="m 520.507,158.343 h -18.251 v 4.248 h 18.251 z" /><path
           id="path158"
           style="fill:#7ed4d1;fill-opacity:1;fill-rule:nonzero;stroke:none"
           d="m 520.507,151.147 h -18.251 v 4.248 h 18.251 z" /><path
           id="path160"
           style="fill:#7ed4d1;fill-opacity:1;fill-rule:nonzero;stroke:none"
           d="m 520.507,144.385 h -18.251 v 4.249 h 18.251 z" /><path
           id="path162"
           style="fill:#7ed4d1;fill-opacity:1;fill-rule:nonzero;stroke:none"
           d="m 520.507,137.369 h -18.251 v 4.248 h 18.251 z" /><path
           id="path164"
           style="fill:#3a857d;fill-opacity:1;fill-rule:nonzero;stroke:none"
           d="m 520.507,130.107 h -18.251 v 4.248 h 18.251 z" /><path
           id="path166"
           style="fill:#63cbf4;fill-opacity:1;fill-rule:nonzero;stroke:none"
           d="M 473.241,170.932 H 454.99 v 4.249 h 18.251 z" /><path
           id="path168"
           style="fill:#a7e0cb;fill-opacity:1;fill-rule:nonzero;stroke:none"
           d="M 473.241,165.089 H 454.99 v 4.248 h 18.251 z" /><path
           id="path170"
           style="fill:#a7e0cb;fill-opacity:1;fill-rule:nonzero;stroke:none"
           d="M 473.241,158.327 H 454.99 v 4.248 h 18.251 z" /><path
           id="path172"
           style="fill:#a7e0cb;fill-opacity:1;fill-rule:nonzero;stroke:none"
           d="M 473.241,151.132 H 454.99 v 4.248 h 18.251 z" /><path
           id="path174"
           style="fill:#4ea5c5;fill-opacity:1;fill-rule:nonzero;stroke:none"
           d="M 473.241,144.369 H 454.99 v 4.249 h 18.251 z" /><path
           id="path176"
           style="fill:#a7e0cb;fill-opacity:1;fill-rule:nonzero;stroke:none"
           d="M 473.241,137.354 H 454.99 v 4.248 h 18.251 z" /><path
           id="path178"
           style="fill:#a7e0cb;fill-opacity:1;fill-rule:nonzero;stroke:none"
           d="M 473.241,130.092 H 454.99 v 4.248 h 18.251 z" /><path
           id="path180"
           style="fill:#a7e0cb;fill-opacity:1;fill-rule:nonzero;stroke:none"
           d="M 473.241,123.293 H 454.99 v 4.25 h 18.251 z" /><path
           id="path182"
           style="fill:#a7e0cb;fill-opacity:1;fill-rule:nonzero;stroke:none"
           d="M 473.241,116.08 H 454.99 v 4.25 h 18.251 z" /><path
           id="path184"
           style="fill:#4ea5c5;fill-opacity:1;fill-rule:nonzero;stroke:none"
           d="M 402.631,170.981 H 384.38 v 4.248 h 18.251 z" /><path
           id="path186"
           style="fill:#4ea5c5;fill-opacity:1;fill-rule:nonzero;stroke:none"
           d="M 402.631,165.138 H 384.38 v 4.249 h 18.251 z" /><path
           id="path188"
           style="fill:#4ea5c5;fill-opacity:1;fill-rule:nonzero;stroke:none"
           d="M 402.631,158.376 H 384.38 v 4.249 h 18.251 z" /><path
           id="path190"
           style="fill:#4ea5c5;fill-opacity:1;fill-rule:nonzero;stroke:none"
           d="M 402.631,151.181 H 384.38 v 4.249 h 18.251 z" /><path
           id="path192"
           style="fill:#4ea5c5;fill-opacity:1;fill-rule:nonzero;stroke:none"
           d="M 402.631,144.419 H 384.38 v 4.249 h 18.251 z" /><path
           id="path194"
           style="fill:#a7e0cb;fill-opacity:1;fill-rule:nonzero;stroke:none"
           d="M 402.631,137.402 H 384.38 v 4.249 h 18.251 z" /><path
           id="path196"
           style="fill:#a7e0cb;fill-opacity:1;fill-rule:nonzero;stroke:none"
           d="M 402.631,130.141 H 384.38 v 4.249 h 18.251 z" /><path
           id="path198"
           style="fill:#a7e0cb;fill-opacity:1;fill-rule:nonzero;stroke:none"
           d="M 402.631,123.342 H 384.38 v 4.25 h 18.251 z" /><path
           id="path200"
           style="fill:#a7e0cb;fill-opacity:1;fill-rule:nonzero;stroke:none"
           d="M 402.631,116.129 H 384.38 v 4.25 h 18.251 z" /><path
           id="path202"
           style="fill:#a7e0cb;fill-opacity:1;fill-rule:nonzero;stroke:none"
           d="M 402.631,109.354 H 384.38 v 4.25 h 18.251 z" /><path
           id="path204"
           style="fill:#89d9ed;fill-opacity:1;fill-rule:nonzero;stroke:none"
           d="m 544.028,261.333 h -18.251 v 4.249 h 18.251 z" /><path
           id="path206"
           style="fill:#89d9ed;fill-opacity:1;fill-rule:nonzero;stroke:none"
           d="m 544.028,254.546 h -18.251 v 4.249 h 18.251 z" /><path
           id="path208"
           style="fill:#89d9ed;fill-opacity:1;fill-rule:nonzero;stroke:none"
           d="m 544.028,247.503 h -18.251 v 4.25 h 18.251 z" /><path
           id="path210"
           style="fill:#89d9ed;fill-opacity:1;fill-rule:nonzero;stroke:none"
           d="m 544.028,240.257 h -18.251 v 4.25 h 18.251 z" /><path
           id="path212"
           style="fill:#89d9ed;fill-opacity:1;fill-rule:nonzero;stroke:none"
           d="m 544.028,233.521 h -18.251 v 4.249 h 18.251 z" /><path
           id="path214"
           style="fill:#89d9ed;fill-opacity:1;fill-rule:nonzero;stroke:none"
           d="m 544.028,226.556 h -18.251 v 4.249 h 18.251 z" /><path
           id="path216"
           style="fill:#89d9ed;fill-opacity:1;fill-rule:nonzero;stroke:none"
           d="m 544.028,219.667 h -18.251 v 4.248 h 18.251 z" /><path
           id="path218"
           style="fill:#89d9ed;fill-opacity:1;fill-rule:nonzero;stroke:none"
           d="m 544.028,212.472 h -18.251 v 4.248 h 18.251 z" /><path
           id="path220"
           style="fill:#89d9ed;fill-opacity:1;fill-rule:nonzero;stroke:none"
           d="m 544.028,205.735 h -18.251 v 4.249 h 18.251 z" /><path
           id="path222"
           style="fill:#89d9ed;fill-opacity:1;fill-rule:nonzero;stroke:none"
           d="m 544.028,198.642 h -18.251 v 4.25 h 18.251 z" /><path
           id="path224"
           style="fill:#89d9ed;fill-opacity:1;fill-rule:nonzero;stroke:none"
           d="m 544.028,191.728 h -18.251 v 4.249 h 18.251 z" /><path
           id="path226"
           style="fill:#89d9ed;fill-opacity:1;fill-rule:nonzero;stroke:none"
           d="m 544.028,184.813 h -18.251 v 4.248 h 18.251 z" /><path
           id="path228"
           style="fill:#89d9ed;fill-opacity:1;fill-rule:nonzero;stroke:none"
           d="m 544.028,177.847 h -18.251 v 4.25 h 18.251 z" /><path
           id="path230"
           style="fill:#63cbf4;fill-opacity:1;fill-rule:nonzero;stroke:none"
           d="m 544.028,170.958 h -18.251 v 4.249 h 18.251 z" /><path
           id="path232"
           style="fill:#77d1d5;fill-opacity:1;fill-rule:nonzero;stroke:none"
           d="m 544.028,165.114 h -18.251 v 4.25 h 18.251 z" /><path
           id="path234"
           style="fill:#b3e6f3;fill-opacity:1;fill-rule:nonzero;stroke:none"
           d="m 544.028,158.353 h -18.251 v 4.25 h 18.251 z" /><path
           id="path236"
           style="fill:#9cd2e2;fill-opacity:1;fill-rule:nonzero;stroke:none"
           d="m 544.028,151.157 h -18.251 v 4.25 h 18.251 z" /></g></g></g></svg>